<?xml version="1.0" encoding="UTF-8" standalone="no"?><!DOCTYPE svg PUBLIC "-//W3C//DTD SVG 1.1//EN" "http://www.w3.org/Graphics/SVG/1.1/DTD/svg11.dtd"><svg width="100%" height="100%" viewBox="0 0 288 240" version="1.1" xmlns="http://www.w3.org/2000/svg" xmlns:xlink="http://www.w3.org/1999/xlink" xml:space="preserve" style="fill-rule:evenodd;clip-rule:evenodd;stroke-linejoin:round;stroke-miterlimit:1.41421;"><g><g><path d="M264.823,48.45l-241.682,0c0,0 -7.807,10.201 -13.43,17.549c-2.669,3.487 -1.934,7.61 -1.934,7.61l272.438,1.671c0,-2.091 0.548,-4.853 -2.456,-9.281c-4.701,-6.932 -12.936,-17.549 -12.936,-17.549Z" style="fill:#ff3f42;"/><path d="M280.215,71.559c0,-2.31 -1.876,-4.186 -4.186,-4.186l-264.032,0c-2.31,0 -4.185,1.876 -4.185,4.186l0,131.151c0,2.31 1.875,4.186 4.185,4.186l264.032,0c2.31,0 4.186,-1.876 4.186,-4.186l0,-131.151Z" style="fill:url(#_Linear1);"/><path d="M274.875,75.559c0,-2.169 -1.761,-3.931 -3.93,-3.931l-252.648,0c-2.17,0 -3.931,1.762 -3.931,3.931l0,123.151c0,2.17 1.761,3.931 3.931,3.931l252.648,0c2.169,0 3.93,-1.761 3.93,-3.931l0,-123.151Z" style="fill:#eb3431;"/></g><g id="command_it"><g><path d="M239.472,48.657c1.722,-0.083 3.497,-0.127 5.309,-0.127c7.925,0 15.123,0.832 20.419,2.183c0.275,0.071 0.811,0.216 0.811,0.216l6.67,7.902c0,0 -0.46,0.341 -0.722,0.507c-4.444,2.817 -14.945,4.799 -27.178,4.799c-1.812,0 -3.587,-0.044 -5.309,-0.127c13.72,-0.663 24.135,-3.85 24.135,-7.677c0,-3.826 -10.415,-7.013 -24.135,-7.676Z" style="fill:#e0302e;fill-opacity:0.717391;"/><path d="M234.163,48.53c13.932,0 29.444,-6.589 29.444,-6.589c0,0 0,13.778 0,14.392c0,4.307 -13.193,7.804 -29.444,7.804c-16.25,0 -29.444,-3.497 -29.444,-7.804c0,-0.582 0,-14.392 0,-14.392c0,0 15.393,6.589 29.444,6.589Z" style="fill:url(#_Linear2);"/><ellipse cx="234.163" cy="41.519" rx="29.444" ry="7.803" style="fill:#ff5856;"/><path d="M263.381,40.548c0.149,0.318 0.226,0.642 0.226,0.971c0,4.307 -13.193,7.803 -29.444,7.803c-16.25,0 -29.444,-3.496 -29.444,-7.803c0,-0.129 0.012,-0.256 0.035,-0.383c1.807,3.849 14.208,6.832 29.218,6.832c15.766,0 28.654,-3.291 29.409,-7.42Z" style="fill:url(#_Linear3);"/></g><g><path d="M149.169,48.657c1.722,-0.083 3.496,-0.127 5.309,-0.127c12.71,0 23.55,2.139 27.67,5.132c0.025,0.018 0.075,0.055 0.075,0.055l1.659,3.022c0,0 -0.008,0.044 -0.013,0.066c-0.921,4.087 -13.738,7.332 -29.391,7.332c-1.813,0 -3.587,-0.044 -5.309,-0.127c13.72,-0.663 24.135,-3.85 24.135,-7.677c0,-3.826 -10.415,-7.013 -24.135,-7.676Z" style="fill:#e0302e;fill-opacity:0.717391;"/><path d="M143.86,48.53c13.931,0 29.444,-6.589 29.444,-6.589c0,0 0,13.778 0,14.392c0,4.307 -13.194,7.804 -29.444,7.804c-16.251,0 -29.444,-3.497 -29.444,-7.804c0,-0.582 0,-14.392 0,-14.392c0,0 15.393,6.589 29.444,6.589Z" style="fill:url(#_Linear4);"/><ellipse cx="143.86" cy="41.519" rx="29.444" ry="7.803" style="fill:#ff5856;"/><path d="M173.077,40.548c0.15,0.318 0.227,0.642 0.227,0.971c0,4.307 -13.194,7.803 -29.444,7.803c-16.251,0 -29.444,-3.496 -29.444,-7.803c0,-0.129 0.012,-0.256 0.035,-0.383c1.806,3.849 14.208,6.832 29.217,6.832c15.766,0 28.655,-3.291 29.409,-7.42Z" style="fill:url(#_Linear5);"/></g><g><path d="M58.865,48.046c1.723,-0.083 3.497,-0.127 5.309,-0.127c12.711,0 23.551,2.139 27.67,5.132c0.026,0.018 0.075,0.055 0.075,0.055l1.66,3.022c0,0 -0.009,0.044 -0.014,0.066c-0.92,4.087 -13.737,7.332 -29.391,7.332c-1.812,0 -3.586,-0.044 -5.309,-0.127c13.721,-0.663 24.135,-3.85 24.135,-7.677c0,-3.826 -10.414,-7.013 -24.135,-7.676Z" style="fill:#e0302e;fill-opacity:0.717391;"/><path d="M53.556,47.919c13.932,0 29.444,-6.589 29.444,-6.589c0,0 0,13.778 0,14.392c0,4.307 -13.193,7.804 -29.444,7.804c-16.25,0 -29.444,-3.497 -29.444,-7.804c0,-0.583 0,-14.392 0,-14.392c0,0 15.393,6.589 29.444,6.589Z" style="fill:url(#_Linear6);"/><ellipse cx="53.556" cy="40.908" rx="29.444" ry="7.803" style="fill:#ff5856;"/><path d="M82.774,39.937c0.149,0.318 0.226,0.642 0.226,0.971c0,4.307 -13.193,7.803 -29.444,7.803c-16.25,0 -29.444,-3.496 -29.444,-7.803c0,-0.129 0.012,-0.256 0.035,-0.383c1.807,3.849 14.208,6.832 29.218,6.832c15.766,0 28.654,-3.291 29.409,-7.42Z" style="fill:url(#_Linear7);"/></g><g><path d="M30.584,158.172c2.768,0 5.078,0.776 6.928,2.329c1.85,1.553 3.008,3.668 3.474,6.345l-5.783,0c-0.233,-1.178 -0.764,-2.108 -1.592,-2.791c-0.828,-0.683 -1.876,-1.024 -3.144,-1.024c-1.449,0 -2.659,0.555 -3.629,1.666c-0.97,1.112 -1.456,2.738 -1.456,4.88c0,2.142 0.486,3.768 1.456,4.879c0.97,1.111 2.18,1.667 3.629,1.667c1.268,0 2.316,-0.341 3.144,-1.024c0.828,-0.683 1.359,-1.613 1.592,-2.791l5.783,0c-0.466,2.677 -1.624,4.792 -3.474,6.345c-1.85,1.553 -4.16,2.329 -6.928,2.329c-2.096,0 -3.96,-0.462 -5.59,-1.385c-1.63,-0.924 -2.898,-2.242 -3.804,-3.956c-0.905,-1.713 -1.358,-3.735 -1.358,-6.064c0,-2.329 0.453,-4.357 1.358,-6.084c0.906,-1.727 2.174,-3.046 3.804,-3.956c1.63,-0.91 3.494,-1.365 5.59,-1.365Z" style="fill:#fff;fill-rule:nonzero;"/><path d="M54.804,158.172c2.096,0 3.979,0.455 5.648,1.365c1.669,0.91 2.982,2.229 3.94,3.956c0.957,1.727 1.436,3.755 1.436,6.084c0,2.329 -0.479,4.351 -1.436,6.064c-0.958,1.714 -2.271,3.032 -3.94,3.956c-1.669,0.923 -3.552,1.385 -5.648,1.385c-2.096,0 -3.978,-0.462 -5.647,-1.385c-1.669,-0.924 -2.983,-2.242 -3.94,-3.956c-0.957,-1.713 -1.436,-3.735 -1.436,-6.064c0,-2.329 0.479,-4.357 1.436,-6.084c0.957,-1.727 2.271,-3.046 3.94,-3.956c1.669,-0.91 3.551,-1.365 5.647,-1.365Zm0,4.899c-1.526,0 -2.82,0.556 -3.881,1.667c-1.061,1.111 -1.592,2.724 -1.592,4.839c0,2.115 0.531,3.728 1.592,4.839c1.061,1.111 2.355,1.667 3.881,1.667c1.527,0 2.821,-0.556 3.882,-1.667c1.061,-1.111 1.591,-2.724 1.591,-4.839c0,-2.115 -0.53,-3.728 -1.591,-4.839c-1.061,-1.111 -2.355,-1.667 -3.882,-1.667Z" style="fill:#fff;fill-rule:nonzero;"/><path d="M97.074,158.131c2.614,0 4.677,0.837 6.191,2.51c1.514,1.674 2.271,4.05 2.271,7.129l0,12.931l-5.434,0l0,-12.289c0,-1.713 -0.421,-3.032 -1.262,-3.955c-0.841,-0.924 -1.999,-1.386 -3.474,-1.386c-1.527,0 -2.743,0.495 -3.648,1.486c-0.906,0.991 -1.359,2.436 -1.359,4.337l0,11.807l-5.434,0l0,-12.289c0,-1.713 -0.421,-3.032 -1.262,-3.955c-0.841,-0.924 -1.999,-1.386 -3.474,-1.386c-1.526,0 -2.743,0.495 -3.648,1.486c-0.906,0.991 -1.359,2.436 -1.359,4.337l0,11.807l-5.473,0l0,-22.248l5.473,0l0,4.216c0.57,-1.445 1.469,-2.563 2.698,-3.353c1.229,-0.79 2.659,-1.185 4.289,-1.185c1.734,0 3.241,0.429 4.522,1.285c1.281,0.857 2.245,2.089 2.892,3.695c0.673,-1.526 1.675,-2.737 3.008,-3.634c1.333,-0.897 2.827,-1.346 4.483,-1.346Z" style="fill:#fff;fill-rule:nonzero;"/><path d="M137.714,158.131c2.613,0 4.677,0.837 6.191,2.51c1.513,1.674 2.27,4.05 2.27,7.129l0,12.931l-5.434,0l0,-12.289c0,-1.713 -0.42,-3.032 -1.261,-3.955c-0.841,-0.924 -1.999,-1.386 -3.474,-1.386c-1.527,0 -2.743,0.495 -3.649,1.486c-0.906,0.991 -1.358,2.436 -1.358,4.337l0,11.807l-5.435,0l0,-12.289c0,-1.713 -0.42,-3.032 -1.261,-3.955c-0.841,-0.924 -1.999,-1.386 -3.474,-1.386c-1.527,0 -2.743,0.495 -3.649,1.486c-0.905,0.991 -1.358,2.436 -1.358,4.337l0,11.807l-5.473,0l0,-22.248l5.473,0l0,4.216c0.569,-1.445 1.468,-2.563 2.697,-3.353c1.23,-0.79 2.659,-1.185 4.29,-1.185c1.733,0 3.241,0.429 4.521,1.285c1.281,0.857 2.245,2.089 2.892,3.695c0.673,-1.526 1.676,-2.737 3.008,-3.634c1.333,-0.897 2.827,-1.346 4.484,-1.346Z" style="fill:#fff;fill-rule:nonzero;"/><path d="M159.411,158.172c1.812,0 3.364,0.441 4.658,1.325c1.294,0.883 2.213,2.075 2.756,3.574l0,-4.618l5.434,0l0,22.248l-5.434,0l0,-4.658c-0.543,1.499 -1.462,2.697 -2.756,3.594c-1.294,0.897 -2.846,1.345 -4.658,1.345c-1.811,0 -3.441,-0.455 -4.89,-1.365c-1.45,-0.91 -2.582,-2.229 -3.397,-3.956c-0.815,-1.727 -1.222,-3.755 -1.222,-6.084c0,-2.329 0.407,-4.357 1.222,-6.084c0.815,-1.727 1.947,-3.046 3.397,-3.956c1.449,-0.91 3.079,-1.365 4.89,-1.365Zm1.708,4.939c-1.708,0 -3.079,0.576 -4.114,1.727c-1.035,1.151 -1.553,2.731 -1.553,4.739c0,2.008 0.518,3.581 1.553,4.719c1.035,1.138 2.406,1.706 4.114,1.706c1.656,0 3.021,-0.582 4.095,-1.746c1.074,-1.165 1.611,-2.725 1.611,-4.679c0,-1.981 -0.537,-3.554 -1.611,-4.719c-1.074,-1.165 -2.439,-1.747 -4.095,-1.747Z" style="fill:#fff;fill-rule:nonzero;"/><path d="M190.036,158.131c2.485,0 4.464,0.844 5.939,2.53c1.475,1.687 2.213,4.057 2.213,7.109l0,12.931l-5.434,0l0,-12.289c0,-1.767 -0.44,-3.139 -1.32,-4.116c-0.88,-0.977 -2.083,-1.466 -3.61,-1.466c-1.553,0 -2.795,0.522 -3.726,1.566c-0.932,1.044 -1.398,2.544 -1.398,4.498l0,11.807l-5.473,0l0,-22.248l5.473,0l0,4.457c0.57,-1.499 1.508,-2.67 2.814,-3.514c1.307,-0.843 2.815,-1.265 4.522,-1.265Z" style="fill:#fff;fill-rule:nonzero;"/><path d="M211.424,158.172c1.811,0 3.357,0.441 4.638,1.325c1.281,0.883 2.206,2.075 2.775,3.574l0,-12.088l5.434,0l0,29.718l-5.434,0l0,-4.658c-0.569,1.499 -1.494,2.697 -2.775,3.594c-1.281,0.897 -2.827,1.345 -4.638,1.345c-1.812,0 -3.442,-0.455 -4.891,-1.365c-1.449,-0.91 -2.581,-2.229 -3.396,-3.956c-0.816,-1.727 -1.223,-3.755 -1.223,-6.084c0,-2.329 0.407,-4.357 1.223,-6.084c0.815,-1.727 1.947,-3.046 3.396,-3.956c1.449,-0.91 3.079,-1.365 4.891,-1.365Zm1.707,4.939c-1.707,0 -3.079,0.576 -4.114,1.727c-1.035,1.151 -1.553,2.731 -1.553,4.739c0,2.008 0.518,3.581 1.553,4.719c1.035,1.138 2.407,1.706 4.114,1.706c1.657,0 3.022,-0.582 4.095,-1.746c1.074,-1.165 1.611,-2.725 1.611,-4.679c0,-1.981 -0.537,-3.554 -1.611,-4.719c-1.073,-1.165 -2.438,-1.747 -4.095,-1.747Z" style="fill:#fff;fill-rule:nonzero;"/><path d="M245.542,152.067c0,-0.91 0.311,-1.653 0.932,-2.229c0.621,-0.575 1.436,-0.863 2.445,-0.863c1.009,0 1.824,0.288 2.445,0.863c0.622,0.576 0.932,1.319 0.932,2.229c0,0.884 -0.31,1.613 -0.932,2.189c-0.621,0.576 -1.436,0.863 -2.445,0.863c-1.009,0 -1.824,-0.287 -2.445,-0.863c-0.621,-0.576 -0.932,-1.305 -0.932,-2.189Zm6.094,6.386l0,22.248l-5.473,0l0,-22.248l5.473,0Z" style="fill:#fff;fill-rule:nonzero;"/><path d="M268.094,175.842l0,4.859l-2.873,0c-2.406,0 -4.25,-0.602 -5.531,-1.807c-1.281,-1.205 -1.921,-3.213 -1.921,-6.024l0,-9.638l-2.989,0l0,-4.779l2.989,0l0,-5.502l5.473,0l0,5.502l4.813,0l0,4.779l-4.813,0l0,9.718c0,1.071 0.207,1.821 0.621,2.249c0.414,0.429 1.113,0.643 2.096,0.643l2.135,0Z" style="fill:#fff;fill-rule:nonzero;"/></g><path d="M167.121,103.265c2.182,0.06 2.535,1.126 0.815,3.332l-32.044,35.738c-0.977,1.089 -3.723,1.668 -3.176,0c0,0 6.528,-19.93 7.731,-22.964c0.183,-0.664 0.146,-1.103 -0.731,-1.112c-0.019,-0.005 -16.301,0 -19.37,0c-2.159,-0.201 -1.679,-1.514 0,-3.333l31.348,-33.281c1.554,-1.649 3.199,-0.377 2.685,1.265l-6.286,19.559c-0.073,0.367 -0.241,0.784 0.352,0.796l18.676,0Z" style="fill:#fff;fill-rule:nonzero;"/><rect x="229.592" y="180.982" width="11.898" height="3.718" style="fill:#fff;"/></g></g><defs><linearGradient id="_Linear1" x1="0" y1="0" x2="1" y2="0" gradientUnits="userSpaceOnUse" gradientTransform="matrix(352.564,-69.3265,107.27,227.855,-30.916,163.063)"><stop offset="0" style="stop-color:#ff7d74;stop-opacity:1"/><stop offset="0.22" style="stop-color:#d82b12;stop-opacity:1"/><stop offset="0.55" style="stop-color:#ff7e73;stop-opacity:1"/><stop offset="0.69" style="stop-color:#e64532;stop-opacity:1"/><stop offset="0.8" style="stop-color:#db2b14;stop-opacity:1"/><stop offset="1" style="stop-color:#ff7b76;stop-opacity:1"/></linearGradient><linearGradient id="_Linear2" x1="0" y1="0" x2="1" y2="0" gradientUnits="userSpaceOnUse" gradientTransform="matrix(58.8877,0,0,22.1959,204.719,53.0389)"><stop offset="0" style="stop-color:#ff7d74;stop-opacity:1"/><stop offset="0.22" style="stop-color:#d82b12;stop-opacity:1"/><stop offset="0.55" style="stop-color:#ff7e73;stop-opacity:1"/><stop offset="0.69" style="stop-color:#e64532;stop-opacity:1"/><stop offset="0.8" style="stop-color:#db2b14;stop-opacity:1"/><stop offset="1" style="stop-color:#ff7b76;stop-opacity:1"/></linearGradient><linearGradient id="_Linear3" x1="0" y1="0" x2="1" y2="0" gradientUnits="userSpaceOnUse" gradientTransform="matrix(86.9414,-4.3873,4.02839,94.6874,176.666,49.3221)"><stop offset="0" style="stop-color:#ff7d74;stop-opacity:1"/><stop offset="0.22" style="stop-color:#d82b12;stop-opacity:1"/><stop offset="0.55" style="stop-color:#ff7e73;stop-opacity:1"/><stop offset="0.69" style="stop-color:#e64532;stop-opacity:1"/><stop offset="0.8" style="stop-color:#db2b14;stop-opacity:1"/><stop offset="1" style="stop-color:#ff7b76;stop-opacity:1"/></linearGradient><linearGradient id="_Linear4" x1="0" y1="0" x2="1" y2="0" gradientUnits="userSpaceOnUse" gradientTransform="matrix(58.8877,0,0,22.1959,114.416,53.0389)"><stop offset="0" style="stop-color:#ff7d74;stop-opacity:1"/><stop offset="0.22" style="stop-color:#d82b12;stop-opacity:1"/><stop offset="0.55" style="stop-color:#ff7e73;stop-opacity:1"/><stop offset="0.69" style="stop-color:#e64532;stop-opacity:1"/><stop offset="0.8" style="stop-color:#db2b14;stop-opacity:1"/><stop offset="1" style="stop-color:#ff7b76;stop-opacity:1"/></linearGradient><linearGradient id="_Linear5" x1="0" y1="0" x2="1" y2="0" gradientUnits="userSpaceOnUse" gradientTransform="matrix(86.9414,-4.3873,4.02839,94.6874,86.3622,49.3221)"><stop offset="0" style="stop-color:#ff7d74;stop-opacity:1"/><stop offset="0.22" style="stop-color:#d82b12;stop-opacity:1"/><stop offset="0.55" style="stop-color:#ff7e73;stop-opacity:1"/><stop offset="0.69" style="stop-color:#e64532;stop-opacity:1"/><stop offset="0.8" style="stop-color:#db2b14;stop-opacity:1"/><stop offset="1" style="stop-color:#ff7b76;stop-opacity:1"/></linearGradient><linearGradient id="_Linear6" x1="0" y1="0" x2="1" y2="0" gradientUnits="userSpaceOnUse" gradientTransform="matrix(58.8877,0,0,22.1959,24.1125,52.4278)"><stop offset="0" style="stop-color:#ff7d74;stop-opacity:1"/><stop offset="0.22" style="stop-color:#d82b12;stop-opacity:1"/><stop offset="0.55" style="stop-color:#ff7e73;stop-opacity:1"/><stop offset="0.69" style="stop-color:#e64532;stop-opacity:1"/><stop offset="0.8" style="stop-color:#db2b14;stop-opacity:1"/><stop offset="1" style="stop-color:#ff7b76;stop-opacity:1"/></linearGradient><linearGradient id="_Linear7" x1="0" y1="0" x2="1" y2="0" gradientUnits="userSpaceOnUse" gradientTransform="matrix(86.9414,-4.3873,4.02839,94.6874,-3.94116,48.7111)"><stop offset="0" style="stop-color:#ff7d74;stop-opacity:1"/><stop offset="0.22" style="stop-color:#d82b12;stop-opacity:1"/><stop offset="0.55" style="stop-color:#ff7e73;stop-opacity:1"/><stop offset="0.69" style="stop-color:#e64532;stop-opacity:1"/><stop offset="0.8" style="stop-color:#db2b14;stop-opacity:1"/><stop offset="1" style="stop-color:#ff7b76;stop-opacity:1"/></linearGradient></defs></svg>