<?xml version="1.0" encoding="UTF-8" standalone="no"?><!DOCTYPE svg PUBLIC "-//W3C//DTD SVG 1.1//EN" "http://www.w3.org/Graphics/SVG/1.1/DTD/svg11.dtd"><svg width="100%" height="100%" viewBox="0 0 288 240" version="1.1" xmlns="http://www.w3.org/2000/svg" xmlns:xlink="http://www.w3.org/1999/xlink" xml:space="preserve" style="fill-rule:evenodd;clip-rule:evenodd;stroke-linejoin:round;stroke-miterlimit:1.41421;"><g><path d="M265.216,42.888l-242.853,0c0,0 -6.297,9.439 -10.391,15.577c-2.748,4.12 -2.168,9.201 -2.168,9.201l268.435,0c0,-2.977 -0.007,-3.408 -2.627,-7.881c-4.283,-7.312 -10.396,-16.897 -10.396,-16.897Z" style="fill:url(#_Linear1);"/><g><path d="M243.458,42.764c9.289,0 23.688,11.606 23.688,11.606c0,0 -9.373,3.55 -23.688,3.55c-1.793,0 -3.547,-0.043 -5.251,-0.124c13.569,-0.644 23.868,-3.738 23.868,-7.454c0,-3.716 -10.299,-6.811 -23.868,-7.455c1.704,-0.081 3.458,-0.123 5.251,-0.123Z" style="fill:#006cc2;fill-opacity:0.717391;"/><path d="M232.957,42.764c13.778,0 29.118,-6.399 29.118,-6.399c0,0 0,13.38 0,13.977c0,4.182 -13.047,7.578 -29.118,7.578c-16.071,0 -29.118,-3.396 -29.118,-7.578c0,-0.567 0,-13.977 0,-13.977c0,0 15.223,6.399 29.118,6.399Z" style="fill:url(#_Linear2);"/><ellipse cx="232.957" cy="35.955" rx="29.118" ry="7.578" style="fill:#1890e4;"/><path d="M261.852,35.012c0.147,0.309 0.223,0.623 0.223,0.943c0,4.182 -13.047,7.578 -29.118,7.578c-16.071,0 -29.118,-3.396 -29.118,-7.578c0,-0.125 0.012,-0.249 0.035,-0.372c1.786,3.738 14.05,6.635 28.894,6.635c15.591,0 28.337,-3.196 29.084,-7.206Z" style="fill:url(#_Linear3);"/></g><g><path d="M176.03,45.664c5.081,1.837 6.693,3.769 6.259,5.757c0,0 -0.108,0.174 -0.171,0.26c-2.594,3.544 -15.248,6.239 -29.563,6.239c-1.793,0 -3.548,-0.043 -5.251,-0.124c13.569,-0.644 23.868,-3.738 23.868,-7.454c0,-3.716 -10.299,-6.811 -23.868,-7.455c1.703,-0.081 3.458,-0.123 5.251,-0.123c9.289,0 17.879,1.134 23.475,2.9Z" style="fill:#006cc2;fill-opacity:0.717391;"/><path d="M142.054,42.764c13.778,0 29.118,-6.399 29.118,-6.399c0,0 0,13.38 0,13.977c0,4.182 -13.047,7.578 -29.118,7.578c-16.071,0 -29.118,-3.396 -29.118,-7.578c0,-0.567 0,-13.977 0,-13.977c0,0 15.223,6.399 29.118,6.399Z" style="fill:url(#_Linear4);"/><ellipse cx="142.054" cy="35.955" rx="29.118" ry="7.578" style="fill:#1890e4;"/><path d="M170.948,35.012c0.148,0.309 0.224,0.623 0.224,0.943c0,4.182 -13.047,7.578 -29.118,7.578c-16.071,0 -29.118,-3.396 -29.118,-7.578c0,-0.125 0.011,-0.249 0.034,-0.372c1.787,3.738 14.051,6.635 28.895,6.635c15.591,0 28.337,-3.196 29.083,-7.206Z" style="fill:url(#_Linear5);"/></g><g><path d="M89.188,45.664c4.921,1.852 6.158,3.791 6.259,5.757c0,0 -0.108,0.174 -0.171,0.26c-2.594,3.544 -15.248,6.239 -29.563,6.239c-1.792,0 -3.547,-0.043 -5.25,-0.124c13.568,-0.644 23.868,-3.738 23.868,-7.454c0,-3.716 -10.3,-6.811 -23.868,-7.455c1.703,-0.081 3.458,-0.123 5.25,-0.123c9.29,0 17.88,1.134 23.475,2.9Z" style="fill:#006cc2;fill-opacity:0.717391;"/><path d="M55.213,42.764c13.777,0 29.118,-6.399 29.118,-6.399c0,0 0,13.38 0,13.977c0,4.182 -13.048,7.578 -29.118,7.578c-16.071,0 -29.119,-3.396 -29.119,-7.578c0,-0.567 0,-13.977 0,-13.977c0,0 15.223,6.399 29.119,6.399Z" style="fill:url(#_Linear6);"/><ellipse cx="55.213" cy="35.955" rx="29.118" ry="7.578" style="fill:#1890e4;"/><path d="M84.107,35.012c0.148,0.309 0.224,0.623 0.224,0.943c0,4.182 -13.048,7.578 -29.118,7.578c-16.071,0 -29.119,-3.396 -29.119,-7.578c0,-0.125 0.012,-0.249 0.035,-0.372c1.786,3.738 14.051,6.635 28.894,6.635c15.592,0 28.338,-3.196 29.084,-7.206Z" style="fill:url(#_Linear7);"/></g><path d="M278.197,65.647c0,-2.275 -1.847,-4.122 -4.122,-4.122l-260.196,0c-2.275,0 -4.122,1.847 -4.122,4.122l0,129.164c0,2.275 1.847,4.122 4.122,4.122l260.196,0c2.275,0 4.122,-1.847 4.122,-4.122l0,-129.164Z" style="fill:url(#_Linear8);"/><path d="M273.668,70.48c0,-2.121 -1.722,-3.843 -3.843,-3.843l-252.704,0c-2.121,0 -3.843,1.722 -3.843,3.843l0,120.419c0,2.121 1.722,3.843 3.843,3.843l252.704,0c2.121,0 3.843,-1.722 3.843,-3.843l0,-120.419Z" style="fill:url(#_Linear9);"/><g><g><g><path d="M129.229,120.128c-1.627,0.879 -3.031,1.007 -4.111,0.036c0,0 -4.641,-3.725 -6.963,-5.585c-3.106,-2.486 -9.319,-7.454 -9.319,-7.454c-1.271,-1.186 -1.43,-2.248 -0.02,-3.137c0,0 7.369,-3.728 11.073,-5.547c0.439,-0.216 1.104,-0.264 1.538,-0.065c5.657,2.596 11.292,5.248 16.93,7.892c1.193,0.56 2.432,1.022 3.572,1.695c0.91,0.539 1.212,0.855 1.507,1.54l1.222,2.845c0,0 -0.961,0.489 -1.312,0.666c-4.707,2.367 -14.117,7.114 -14.117,7.114Z" style="fill:#fff;fill-rule:nonzero;"/><path d="M134.756,127.946c-1.039,-0.644 -1.116,-1.418 -0.697,-2.26l4.648,-10.338c0,0 3.093,-1.557 4.639,-2.334c0.351,-0.177 1.318,-0.652 1.318,-0.652l-4.438,19.894l-5.47,-4.31Z" style="fill:#2dc6ff;fill-rule:nonzero;"/><path d="M140.226,132.255l4.438,-19.893c0,0 2.718,6.611 4.007,9.529c0.355,0.805 0.322,1.493 0.195,2.404c-0.475,3.411 -1.698,12.194 -1.698,12.194c-0.108,0.773 -0.43,1.026 -1.076,0.488l-5.866,-4.722Z" style="fill:#2dc6ff;fill-rule:nonzero;"/></g></g><g><g><path d="M162.227,103.493c1.669,-0.782 2.663,-1.864 2.673,-3.383c0,0 0.357,-6.246 0.539,-9.368c0.243,-4.174 0.735,-12.522 0.735,-12.522c-0.019,-1.817 -0.667,-2.634 -2.202,-2.037c0,0 -7.379,3.707 -11.049,5.604c-0.435,0.225 -0.898,0.746 -1.036,1.233c-1.809,6.36 -3.564,12.738 -5.327,19.113c-0.373,1.349 -0.845,2.673 -1.102,4.051c-0.206,1.101 -0.178,1.556 0.116,2.24l1.223,2.845c0,0 0.964,-0.481 1.315,-0.658c4.703,-2.376 14.115,-7.118 14.115,-7.118Z" style="fill:#fff;fill-rule:nonzero;"/><path d="M164.191,113.107c0.214,-1.275 -0.284,-1.837 -1.147,-2.033l-10.296,-2.804c0,0 -3.091,1.56 -4.636,2.341c-0.351,0.177 -1.309,0.672 -1.309,0.672l16.91,9.133l0.478,-7.309Z" style="fill:#2dc6ff;fill-rule:nonzero;"/><path d="M163.712,120.415l-16.909,-9.132c0,0 2.92,6.51 4.151,9.457c0.34,0.813 0.847,1.228 1.572,1.71c2.716,1.803 9.707,6.444 9.707,6.444c0.616,0.409 1.001,0.304 1.038,-0.578l0.441,-7.901Z" style="fill:#2dc6ff;fill-rule:nonzero;"/></g></g></g><rect x="206.394" y="179.991" width="17.726" height="5.727" style="fill:#fff;"/><g><g><g><path d="M42.98,141.425c-2.24,-0.157 -3.812,0.195 -4.715,1.056c-0.903,0.861 -1.355,2.368 -1.355,4.52l0,0.059l6.07,0l0,6.985l-6.07,0l0,25.535l-7.641,0l0,-25.535l-3.848,0l0,-6.985l3.848,0l0,-0.763c0,-3.874 1.021,-6.858 3.062,-8.952c2.041,-2.094 5.067,-3.14 9.077,-3.14c0.687,0 1.21,0.019 1.572,0.058l0,7.162Z" style="fill:#fff;fill-rule:nonzero;"/><rect x="48.67" y="136.142" width="7.641" height="43.438" style="fill:#fff;fill-rule:nonzero;"/><path d="M93.109,147.06l0,32.52l-7.642,0l0,-6.574c-0.795,2.191 -2.104,3.903 -3.929,5.136c-1.824,1.233 -3.929,1.849 -6.313,1.849c-3.469,0 -6.232,-1.233 -8.292,-3.698c-2.059,-2.466 -3.089,-5.909 -3.089,-10.331l0,-18.902l7.587,0l0,17.962c0,2.583 0.614,4.589 1.843,6.017c1.228,1.429 2.89,2.143 4.986,2.143c2.203,0 3.956,-0.763 5.256,-2.29c1.301,-1.526 1.951,-3.717 1.951,-6.574l0,-17.258l7.642,0Z" style="fill:#fff;fill-rule:nonzero;"/><path d="M117.224,172.477l0,7.103l-4.01,0c-3.36,0 -5.934,-0.88 -7.722,-2.641c-1.789,-1.761 -2.683,-4.696 -2.683,-8.806l0,-14.088l-4.173,0l0,-6.985l4.173,0l0,-8.042l7.641,0l0,8.042l6.72,0l0,6.985l-6.72,0l0,14.206c0,1.565 0.289,2.661 0.867,3.287c0.578,0.626 1.554,0.939 2.927,0.939l2.98,0Z" style="fill:#fff;fill-rule:nonzero;"/><path d="M139.877,172.477l0,7.103l-4.01,0c-3.36,0 -5.934,-0.88 -7.723,-2.641c-1.788,-1.761 -2.682,-4.696 -2.682,-8.806l0,-14.088l-4.173,0l0,-6.985l4.173,0l0,-8.042l7.641,0l0,8.042l6.72,0l0,6.985l-6.72,0l0,14.206c0,1.565 0.289,2.661 0.867,3.287c0.578,0.626 1.554,0.939 2.927,0.939l2.98,0Z" style="fill:#fff;fill-rule:nonzero;"/><path d="M174.723,162.087c0,0.822 -0.09,1.761 -0.27,2.818l-22.003,0c0.108,2.896 0.831,5.029 2.168,6.398c1.337,1.37 2.998,2.055 4.986,2.055c1.77,0 3.242,-0.47 4.416,-1.409c1.175,-0.939 1.924,-2.211 2.249,-3.816l8.075,0c-0.397,2.27 -1.246,4.305 -2.547,6.105c-1.301,1.8 -2.972,3.209 -5.013,4.227c-2.041,1.017 -4.308,1.526 -6.801,1.526c-2.927,0 -5.528,-0.675 -7.804,-2.025c-2.276,-1.35 -4.046,-3.278 -5.311,-5.782c-1.264,-2.505 -1.897,-5.459 -1.897,-8.864c0,-3.405 0.633,-6.369 1.897,-8.893c1.265,-2.524 3.035,-4.452 5.311,-5.782c2.276,-1.331 4.877,-1.996 7.804,-1.996c2.962,0 5.555,0.665 7.777,1.996c2.222,1.33 3.938,3.16 5.148,5.488c1.21,2.329 1.815,4.98 1.815,7.954Zm-7.695,-0.821c0.108,-2.662 -0.533,-4.677 -1.924,-6.047c-1.391,-1.369 -3.098,-2.054 -5.121,-2.054c-2.059,0 -3.794,0.685 -5.203,2.054c-1.409,1.37 -2.185,3.385 -2.33,6.047l14.578,0Z" style="fill:#fff;fill-rule:nonzero;"/><path d="M188.922,153.282c1.12,-2.074 2.601,-3.708 4.444,-4.901c1.843,-1.194 3.902,-1.791 6.178,-1.791l0,8.864l-2.222,0c-5.6,0 -8.4,2.818 -8.4,8.453l0,15.673l-7.641,0l0,-32.52l7.641,0l0,6.222Z" style="fill:#fff;fill-rule:nonzero;"/><path d="M229.946,137.727c0,-1.331 0.434,-2.417 1.301,-3.258c0.867,-0.842 2.005,-1.262 3.414,-1.262c1.409,0 2.547,0.42 3.414,1.262c0.867,0.841 1.301,1.927 1.301,3.258c0,1.291 -0.434,2.357 -1.301,3.199c-0.867,0.841 -2.005,1.262 -3.414,1.262c-1.409,0 -2.547,-0.421 -3.414,-1.262c-0.867,-0.842 -1.301,-1.908 -1.301,-3.199Zm8.509,9.333l0,32.52l-7.642,0l0,-32.52l7.642,0Z" style="fill:#fff;fill-rule:nonzero;"/><path d="M262.571,172.477l0,7.103l-4.011,0c-3.36,0 -5.934,-0.88 -7.722,-2.641c-1.789,-1.761 -2.683,-4.696 -2.683,-8.806l0,-14.088l-4.173,0l0,-6.985l4.173,0l0,-8.042l7.642,0l0,8.042l6.72,0l0,6.985l-6.72,0l0,14.206c0,1.565 0.289,2.661 0.867,3.287c0.578,0.626 1.553,0.939 2.926,0.939l2.981,0Z" style="fill:#fff;fill-rule:nonzero;"/></g></g></g></g><defs><linearGradient id="_Linear1" x1="0" y1="0" x2="1" y2="0" gradientUnits="userSpaceOnUse" gradientTransform="matrix(264.663,-9.91265e-15,1.00387e-14,261.34,9.79385,54.4541)"><stop offset="0" style="stop-color:#118adf;stop-opacity:1"/><stop offset="0.35" style="stop-color:#1189dd;stop-opacity:1"/><stop offset="0.65" style="stop-color:#0f88dd;stop-opacity:1"/><stop offset="1" style="stop-color:#006cc2;stop-opacity:1"/></linearGradient><linearGradient id="_Linear2" x1="0" y1="0" x2="1" y2="0" gradientUnits="userSpaceOnUse" gradientTransform="matrix(58.2364,0,0,21.5548,203.839,47.1422)"><stop offset="0" style="stop-color:#0273cc;stop-opacity:1"/><stop offset="0.24" style="stop-color:#259eed;stop-opacity:1"/><stop offset="0.49" style="stop-color:#0060b5;stop-opacity:1"/><stop offset="0.67" style="stop-color:#239ded;stop-opacity:1"/><stop offset="0.8" style="stop-color:#0677d0;stop-opacity:1"/><stop offset="1" style="stop-color:#1f99ea;stop-opacity:1"/></linearGradient><linearGradient id="_Linear3" x1="0" y1="0" x2="1" y2="0" gradientUnits="userSpaceOnUse" gradientTransform="matrix(58.2364,0,0,8.52114,203.839,39.2722)"><stop offset="0" style="stop-color:#006dc1;stop-opacity:1"/><stop offset="0.29" style="stop-color:#249eee;stop-opacity:1"/><stop offset="0.53" style="stop-color:#0170cb;stop-opacity:1"/><stop offset="0.73" style="stop-color:#3bb7fe;stop-opacity:1"/><stop offset="1" style="stop-color:#178ce2;stop-opacity:1"/></linearGradient><linearGradient id="_Linear4" x1="0" y1="0" x2="1" y2="0" gradientUnits="userSpaceOnUse" gradientTransform="matrix(58.2364,0,0,21.5548,112.936,47.1422)"><stop offset="0" style="stop-color:#0273cc;stop-opacity:1"/><stop offset="0.24" style="stop-color:#259eed;stop-opacity:1"/><stop offset="0.49" style="stop-color:#0060b5;stop-opacity:1"/><stop offset="0.67" style="stop-color:#239ded;stop-opacity:1"/><stop offset="0.8" style="stop-color:#0677d0;stop-opacity:1"/><stop offset="1" style="stop-color:#1f99ea;stop-opacity:1"/></linearGradient><linearGradient id="_Linear5" x1="0" y1="0" x2="1" y2="0" gradientUnits="userSpaceOnUse" gradientTransform="matrix(58.2364,0,0,8.52114,112.936,39.2722)"><stop offset="0" style="stop-color:#006dc1;stop-opacity:1"/><stop offset="0.29" style="stop-color:#249eee;stop-opacity:1"/><stop offset="0.53" style="stop-color:#0170cb;stop-opacity:1"/><stop offset="0.73" style="stop-color:#3bb7fe;stop-opacity:1"/><stop offset="1" style="stop-color:#178ce2;stop-opacity:1"/></linearGradient><linearGradient id="_Linear6" x1="0" y1="0" x2="1" y2="0" gradientUnits="userSpaceOnUse" gradientTransform="matrix(58.2364,0,0,21.5548,26.0943,47.1422)"><stop offset="0" style="stop-color:#0273cc;stop-opacity:1"/><stop offset="0.24" style="stop-color:#259eed;stop-opacity:1"/><stop offset="0.49" style="stop-color:#0060b5;stop-opacity:1"/><stop offset="0.67" style="stop-color:#239ded;stop-opacity:1"/><stop offset="0.8" style="stop-color:#0677d0;stop-opacity:1"/><stop offset="1" style="stop-color:#1f99ea;stop-opacity:1"/></linearGradient><linearGradient id="_Linear7" x1="0" y1="0" x2="1" y2="0" gradientUnits="userSpaceOnUse" gradientTransform="matrix(58.2364,0,0,8.52114,26.0943,39.2722)"><stop offset="0" style="stop-color:#006dc1;stop-opacity:1"/><stop offset="0.29" style="stop-color:#249eee;stop-opacity:1"/><stop offset="0.53" style="stop-color:#0170cb;stop-opacity:1"/><stop offset="0.73" style="stop-color:#3bb7fe;stop-opacity:1"/><stop offset="1" style="stop-color:#178ce2;stop-opacity:1"/></linearGradient><linearGradient id="_Linear8" x1="0" y1="0" x2="1" y2="0" gradientUnits="userSpaceOnUse" gradientTransform="matrix(412.091,-127.841,149.754,351.79,-121.461,248.421)"><stop offset="0" style="stop-color:#006ac0;stop-opacity:1"/><stop offset="0.18" style="stop-color:#0875c9;stop-opacity:1"/><stop offset="0.25" style="stop-color:#198ddd;stop-opacity:1"/><stop offset="0.31" style="stop-color:#2aa6f2;stop-opacity:1"/><stop offset="0.35" style="stop-color:#006bc4;stop-opacity:1"/><stop offset="0.74" style="stop-color:#35b0fb;stop-opacity:1"/><stop offset="1" style="stop-color:#006bc2;stop-opacity:1"/></linearGradient><linearGradient id="_Linear9" x1="0" y1="0" x2="1" y2="0" gradientUnits="userSpaceOnUse" gradientTransform="matrix(332.578,124.153,-147.168,280.567,-5.66808,74.1209)"><stop offset="0" style="stop-color:#077ed5;stop-opacity:1"/><stop offset="0.2" style="stop-color:#067dd4;stop-opacity:1"/><stop offset="0.38" style="stop-color:#067dd4;stop-opacity:1"/><stop offset="1" style="stop-color:#067dd3;stop-opacity:1"/></linearGradient></defs></svg>