<svg xmlns="http://www.w3.org/2000/svg" viewBox="0 0 700 200">
  <defs>
    <marker id="arrow-orange" markerWidth="10" markerHeight="10" refX="9" refY="3" orient="auto">
      <polygon points="0 0, 10 3, 0 6" fill="#d89e00"/>
    </marker>
  </defs>

  <!-- Step 1: Register -->
  <rect x="20" y="60" width="140" height="80" rx="8" fill="#fbb533" stroke="#d89e00" stroke-width="2"/>
  <text x="90" y="90" text-anchor="middle" font-size="14" font-weight="bold" fill="white">1. Register</text>
  <text x="90" y="110" text-anchor="middle" font-size="12" fill="white">main.dart</text>

  <!-- Arrow -->
  <line x1="160" y1="100" x2="210" y2="100" stroke="#d89e00" stroke-width="2" marker-end="url(#arrow-orange)"/>

  <!-- Step 2: Store -->
  <rect x="210" y="60" width="140" height="80" rx="8" fill="#feb939" stroke="#d89e00" stroke-width="2"/>
  <text x="280" y="90" text-anchor="middle" font-size="14" font-weight="bold" fill="white">2. Store</text>
  <text x="280" y="110" text-anchor="middle" font-size="12" fill="white">GetIt Container</text>

  <!-- Arrow -->
  <line x1="350" y1="100" x2="400" y2="100" stroke="#d89e00" stroke-width="2" marker-end="url(#arrow-orange)"/>

  <!-- Step 3: Access -->
  <rect x="400" y="60" width="140" height="80" rx="8" fill="#fec85a" stroke="#d89e00" stroke-width="2"/>
  <text x="470" y="90" text-anchor="middle" font-size="14" font-weight="bold" fill="white">3. Access</text>
  <text x="470" y="110" text-anchor="middle" font-size="12" fill="white">Anywhere!</text>

  <!-- Access branches -->
  <!-- Widgets -->
  <line x1="540" y1="90" x2="580" y2="70" stroke="#d89e00" stroke-width="1.5"/>
  <rect x="580" y="58" width="110" height="24" rx="4" fill="#fff8e1" stroke="#d89e00" stroke-width="1"/>
  <text x="635" y="75" text-anchor="middle" font-size="11" font-weight="bold" fill="#7d5e00">Widgets</text>

  <!-- Business Logic -->
  <line x1="540" y1="100" x2="580" y2="100" stroke="#d89e00" stroke-width="1.5"/>
  <rect x="580" y="88" width="110" height="24" rx="4" fill="#fff8e1" stroke="#d89e00" stroke-width="1"/>
  <text x="635" y="105" text-anchor="middle" font-size="11" font-weight="bold" fill="#7d5e00">Business Logic</text>

  <!-- Services -->
  <line x1="540" y1="110" x2="580" y2="130" stroke="#d89e00" stroke-width="1.5"/>
  <rect x="580" y="118" width="110" height="24" rx="4" fill="#fff8e1" stroke="#d89e00" stroke-width="1"/>
  <text x="635" y="135" text-anchor="middle" font-size="11" font-weight="bold" fill="#7d5e00">Services</text>
</svg>
