<?xml version="1.0" encoding="UTF-8" standalone="no"?><!DOCTYPE svg PUBLIC "-//W3C//DTD SVG 1.1//EN" "http://www.w3.org/Graphics/SVG/1.1/DTD/svg11.dtd"><svg width="100%" height="100%" viewBox="0 0 240 240" version="1.1" xmlns="http://www.w3.org/2000/svg" xmlns:xlink="http://www.w3.org/1999/xlink" xml:space="preserve" style="fill-rule:evenodd;clip-rule:evenodd;stroke-linecap:round;stroke-linejoin:round;stroke-miterlimit:1.5;"><g id="get_it"><path d="M214.536,33.398c-1.813,-3.002 -2.098,-2.777 -5.054,-2.777l-177.334,0c-2.956,0 -6.724,2.777 -6.724,2.777c0,0 -10.174,17.262 -13.153,22.315c-2.211,3.751 0.192,7.838 3.717,7.838l210.5,0c2.956,0 1.819,-4.909 0.78,-7.838l-7.252,-12.71l-5.48,-9.605Z" style="fill:#fbb533;"/><path d="M228.659,60.302c0,-2.837 -2.315,-5.14 -5.167,-5.14l-206.984,0c-2.852,0 -5.167,2.303 -5.167,5.14l0,161.051c0,2.837 2.315,5.14 5.167,5.14l206.984,0c2.852,0 5.167,-2.303 5.167,-5.14l0,-161.051l0,0Z" style="fill:url(#_Linear1);"/><g><path d="M177.88,30.314c2.121,-0.094 4.306,-0.143 6.538,-0.143c12.739,0 23.952,1.594 30.421,4.002c0.106,0.039 0.314,0.119 0.314,0.119l4.075,7.121c0,0 -0.113,0.093 -0.173,0.139c-4.585,3.575 -18.367,6.175 -34.637,6.175c-2.232,0 -4.417,-0.049 -6.538,-0.143c16.897,-0.746 29.722,-4.331 29.722,-8.635c0,-4.304 -12.825,-7.889 -29.722,-8.635l0,0Z" style="fill:#df9d1e;fill-opacity:0.713726;"/><path d="M171.342,30.794c17.157,0 36.26,-8.035 36.26,-8.035c0,0 0,16.8 0,17.55c0,5.251 -16.247,9.515 -36.26,9.515c-20.012,0 -36.26,-4.264 -36.26,-9.515c0,-0.711 0,-17.55 0,-17.55c0,0 18.957,8.035 36.26,8.035l0,0Z" style="fill:url(#_Linear2);"/><ellipse cx="171.342" cy="22.285" rx="36.26" ry="8.778" style="fill:#feb939;"/><path d="M207.324,21.192c0.184,0.358 0.278,0.723 0.278,1.093c0,4.844 -16.247,8.777 -36.26,8.777c-20.012,0 -36.26,-3.933 -36.26,-8.777c0,-0.145 0.015,-0.289 0.043,-0.432c2.225,4.33 17.497,7.686 35.982,7.686c19.415,0 35.287,-3.702 36.217,-8.347l0,0Z" style="fill:url(#_Linear3);"/></g><g><path d="M74.68,30.314c2.121,-0.094 4.306,-0.143 6.538,-0.143c15.812,0 29.274,2.456 34.228,5.876c0.014,0.009 0.04,0.027 0.04,0.027l1.955,3.277c0,0 -0.004,0.024 -0.007,0.036c-0.944,4.641 -16.81,8.34 -36.216,8.34c-2.232,0 -4.417,-0.049 -6.538,-0.143c16.897,-0.746 29.722,-4.331 29.722,-8.635c0,-4.304 -12.825,-7.889 -29.722,-8.635l0,0Z" style="fill:#df9d1e;fill-opacity:0.713726;"/><path d="M68.142,30.794c17.157,0 36.26,-8.035 36.26,-8.035c0,0 0,16.8 0,17.55c0,5.251 -16.247,9.515 -36.26,9.515c-20.012,0 -36.26,-4.264 -36.26,-9.515c0,-0.711 0,-17.55 0,-17.55c0,0 18.957,8.035 36.26,8.035l0,0Z" style="fill:url(#_Linear4);"/><ellipse cx="68.142" cy="22.285" rx="36.26" ry="8.778" style="fill:#feb939;"/><path d="M104.124,21.192c0.184,0.358 0.278,0.723 0.278,1.093c0,4.844 -16.247,8.777 -36.26,8.777c-20.012,0 -36.26,-3.933 -36.26,-8.777c0,-0.145 0.015,-0.289 0.043,-0.432c2.225,4.33 17.497,7.686 35.982,7.686c19.415,0 35.287,-3.702 36.217,-8.347l0,0Z" style="fill:url(#_Linear5);"/></g><path d="M222.84,65.229c0,-2.663 -2.173,-4.825 -4.85,-4.825l-195.98,0c-2.677,0 -4.85,2.162 -4.85,4.825l0,151.197c0,2.663 2.173,4.825 4.85,4.825l195.98,0c2.677,0 4.85,-2.162 4.85,-4.825l0,-151.197l0,0Z" style="fill:#eea825;"/><g><path d="M87.48,83.723l71.431,0l-27.89,0l0,21.779" style="fill:none;stroke:#fcf1e6;stroke-width:5.2px;"/><path d="M115.539,83.723l0,22.543" style="fill:none;stroke:#fcf1e6;stroke-width:5.2px;"/><path d="M112.534,94.172l21.502,0" style="fill:none;stroke:#fcf1e6;stroke-width:5.2px;"/><path d="M98.801,108.06l14.095,0" style="fill:none;stroke:#fcf1e6;stroke-width:5.2px;"/><path d="M133.216,108.06l13.029,0l12.666,21.364l-12.666,21.132l-4.903,-3.483l4.903,-17.649l-4.903,-7.88l-8.811,0" style="fill:none;stroke:#fcf1e6;stroke-width:5.2px;"/><path d="M113.598,121.544l-9.428,0l-6.2,7.88l5.719,17.649l-4.888,3.483l-13.712,-21.132l13.712,-21.364" style="fill:none;stroke:#fcf1e6;stroke-width:5.21px;"/><path d="M123.285,101.578c7.008,0 12.697,5.757 12.697,12.847c0,7.09 -5.689,12.847 -12.697,12.847c-7.008,0 -12.698,-5.757 -12.698,-12.847c0,-7.09 5.69,-12.847 12.698,-12.847Zm0,3.212c5.256,0 9.523,4.318 9.523,9.635c0,5.318 -4.267,9.635 -9.523,9.635c-5.256,0 -9.523,-4.317 -9.523,-9.635c0,-5.317 4.267,-9.635 9.523,-9.635Z" style="fill:#fcf1e6;stroke:#fcf1e6;stroke-width:1.54px;stroke-linecap:butt;stroke-miterlimit:1.41421;"/></g><rect x="138.003" y="194.909" width="16.327" height="4.554" style="fill:#fff;"/><g><path d="M65.03,167.435c2.296,0 4.264,0.538 5.904,1.615c1.64,1.077 2.805,2.529 3.493,4.356l0,-5.629l6.889,0l0,27.214c0,2.513 -0.5,4.772 -1.501,6.779c-1,2.007 -2.493,3.581 -4.477,4.723c-1.985,1.142 -4.387,1.713 -7.208,1.713c-3.937,0 -7.118,-0.93 -9.546,-2.79c-2.427,-1.86 -3.903,-4.388 -4.428,-7.586l6.839,0c0.394,1.37 1.157,2.439 2.288,3.206c1.132,0.767 2.583,1.15 4.355,1.15c2.033,0 3.673,-0.596 4.92,-1.787c1.246,-1.191 1.869,-2.993 1.869,-5.408l0,-5.776c-0.688,1.828 -1.853,3.288 -3.493,4.381c-1.64,1.093 -3.608,1.64 -5.904,1.64c-2.296,0 -4.363,-0.555 -6.2,-1.664c-1.836,-1.11 -3.271,-2.717 -4.305,-4.821c-1.033,-2.105 -1.55,-4.577 -1.55,-7.416c0,-2.839 0.517,-5.31 1.55,-7.415c1.034,-2.105 2.469,-3.712 4.305,-4.821c1.837,-1.109 3.904,-1.664 6.2,-1.664Zm2.165,6.02c-2.165,0 -3.904,0.702 -5.216,2.105c-1.312,1.403 -1.968,3.328 -1.968,5.775c0,2.448 0.656,4.365 1.968,5.751c1.312,1.387 3.051,2.081 5.216,2.081c2.099,0 3.829,-0.71 5.191,-2.13c1.361,-1.419 2.041,-3.32 2.041,-5.702c0,-2.414 -0.68,-4.331 -2.041,-5.751c-1.362,-1.419 -3.092,-2.129 -5.191,-2.129Z" style="fill:#fff;fill-rule:nonzero;"/><g><path d="M113.32,180.307c0,0.686 -0.082,1.469 -0.246,2.35l-19.976,0c0.099,2.414 0.755,4.193 1.968,5.335c1.214,1.142 2.723,1.713 4.527,1.713c1.607,0 2.944,-0.392 4.01,-1.175c1.066,-0.783 1.747,-1.843 2.042,-3.181l7.331,0c-0.361,1.892 -1.132,3.589 -2.313,5.09c-1.181,1.501 -2.698,2.676 -4.551,3.524c-1.853,0.849 -3.911,1.273 -6.175,1.273c-2.657,0 -5.018,-0.563 -7.085,-1.689c-2.066,-1.126 -3.673,-2.733 -4.822,-4.821c-1.148,-2.088 -1.722,-4.552 -1.722,-7.391c0,-2.839 0.574,-5.31 1.722,-7.415c1.149,-2.105 2.756,-3.712 4.822,-4.821c2.067,-1.109 4.428,-1.664 7.085,-1.664c2.69,0 5.043,0.555 7.061,1.664c2.017,1.109 3.575,2.635 4.674,4.576c1.099,1.942 1.648,4.153 1.648,6.632Zm-6.986,-0.685c0.098,-2.219 -0.484,-3.899 -1.747,-5.041c-1.263,-1.142 -2.813,-1.713 -4.65,-1.713c-1.869,0 -3.444,0.571 -4.723,1.713c-1.279,1.142 -1.985,2.822 -2.116,5.041l13.236,0Z" style="fill:#fff;fill-rule:nonzero;"/><path d="M132.804,188.971l0,5.922l-3.641,0c-3.05,0 -5.387,-0.734 -7.011,-2.202c-1.624,-1.469 -2.436,-3.916 -2.436,-7.342l0,-11.747l-3.788,0l0,-5.825l3.788,0l0,-6.705l6.938,0l0,6.705l6.101,0l0,5.825l-6.101,0l0,11.845c0,1.305 0.262,2.219 0.787,2.741c0.525,0.522 1.411,0.783 2.657,0.783l2.706,0Z" style="fill:#fff;fill-rule:nonzero;"/><path d="M158.438,159.995c0,-1.109 0.394,-2.015 1.181,-2.716c0.787,-0.702 1.821,-1.053 3.1,-1.053c1.279,0 2.312,0.351 3.1,1.053c0.787,0.701 1.18,1.607 1.18,2.716c0,1.077 -0.393,1.966 -1.18,2.668c-0.788,0.701 -1.821,1.052 -3.1,1.052c-1.279,0 -2.313,-0.351 -3.1,-1.052c-0.787,-0.702 -1.181,-1.591 -1.181,-2.668Zm7.725,7.782l0,27.116l-6.937,0l0,-27.116l6.937,0Z" style="fill:#fff;fill-rule:nonzero;"/><path d="M187.025,188.971l0,5.922l-3.641,0c-3.051,0 -5.388,-0.734 -7.012,-2.202c-1.623,-1.469 -2.435,-3.916 -2.435,-7.342l0,-11.747l-3.789,0l0,-5.825l3.789,0l0,-6.705l6.937,0l0,6.705l6.101,0l0,5.825l-6.101,0l0,11.845c0,1.305 0.263,2.219 0.788,2.741c0.524,0.522 1.41,0.783 2.656,0.783l2.707,0Z" style="fill:#fff;fill-rule:nonzero;"/></g></g></g><defs><linearGradient id="_Linear1" x1="0" y1="0" x2="1" y2="0" gradientUnits="userSpaceOnUse" gradientTransform="matrix(281.269,-85.1318,85.5781,279.803,-19.5556,172.667)"><stop offset="0" style="stop-color:#fecc5d;stop-opacity:1"/><stop offset="0.22" style="stop-color:#f2aa26;stop-opacity:1"/><stop offset="0.55" style="stop-color:#fec85a;stop-opacity:1"/><stop offset="0.69" style="stop-color:#dc9f25;stop-opacity:1"/><stop offset="0.8" style="stop-color:#cc8d0d;stop-opacity:1"/><stop offset="1" style="stop-color:#f4ad24;stop-opacity:1"/></linearGradient><linearGradient id="_Linear2" x1="0" y1="0" x2="1" y2="0" gradientUnits="userSpaceOnUse" gradientTransform="matrix(92.8749,-8.93594e-15,8.28686e-15,100.149,114.728,36.2913)"><stop offset="0" style="stop-color:#fecc5d;stop-opacity:1"/><stop offset="0.22" style="stop-color:#f2aa26;stop-opacity:1"/><stop offset="0.55" style="stop-color:#fec85a;stop-opacity:1"/><stop offset="0.69" style="stop-color:#dc9f25;stop-opacity:1"/><stop offset="0.8" style="stop-color:#cc8d0d;stop-opacity:1"/><stop offset="1" style="stop-color:#f4ad24;stop-opacity:1"/></linearGradient><linearGradient id="_Linear3" x1="0" y1="0" x2="1" y2="0" gradientUnits="userSpaceOnUse" gradientTransform="matrix(125.277,3.3678,-3.38545,124.624,82.3259,22.7593)"><stop offset="0" style="stop-color:#fecc5d;stop-opacity:1"/><stop offset="0.22" style="stop-color:#f2aa26;stop-opacity:1"/><stop offset="0.55" style="stop-color:#fec85a;stop-opacity:1"/><stop offset="0.69" style="stop-color:#dc9f25;stop-opacity:1"/><stop offset="0.8" style="stop-color:#cc8d0d;stop-opacity:1"/><stop offset="1" style="stop-color:#f4ad24;stop-opacity:1"/></linearGradient><linearGradient id="_Linear4" x1="0" y1="0" x2="1" y2="0" gradientUnits="userSpaceOnUse" gradientTransform="matrix(92.8749,-8.93594e-15,8.28686e-15,100.149,11.5276,36.2913)"><stop offset="0" style="stop-color:#fecc5d;stop-opacity:1"/><stop offset="0.22" style="stop-color:#f2aa26;stop-opacity:1"/><stop offset="0.55" style="stop-color:#fec85a;stop-opacity:1"/><stop offset="0.69" style="stop-color:#dc9f25;stop-opacity:1"/><stop offset="0.8" style="stop-color:#cc8d0d;stop-opacity:1"/><stop offset="1" style="stop-color:#f4ad24;stop-opacity:1"/></linearGradient><linearGradient id="_Linear5" x1="0" y1="0" x2="1" y2="0" gradientUnits="userSpaceOnUse" gradientTransform="matrix(125.277,3.3678,-3.38545,124.624,-20.8741,22.7593)"><stop offset="0" style="stop-color:#fecc5d;stop-opacity:1"/><stop offset="0.22" style="stop-color:#f2aa26;stop-opacity:1"/><stop offset="0.55" style="stop-color:#fec85a;stop-opacity:1"/><stop offset="0.69" style="stop-color:#dc9f25;stop-opacity:1"/><stop offset="0.8" style="stop-color:#cc8d0d;stop-opacity:1"/><stop offset="1" style="stop-color:#f4ad24;stop-opacity:1"/></linearGradient></defs></svg>