<?xml version="1.0" encoding="UTF-8" standalone="no"?>
<!DOCTYPE svg PUBLIC "-//W3C//DTD SVG 1.1//EN" "http://www.w3.org/Graphics/SVG/1.1/DTD/svg11.dtd">
<svg width="100%" height="100%" viewBox="0 0 1000 1000" version="1.1" xmlns="http://www.w3.org/2000/svg" xmlns:xlink="http://www.w3.org/1999/xlink" xml:space="preserve" style="fill-rule:evenodd;clip-rule:evenodd;stroke-linejoin:round;stroke-miterlimit:1.41421;">
    <g transform="matrix(0.911154,0,0,0.911154,16.284,17.9405)">
        <g transform="matrix(1.09525,0,0,1.02953,-51.379,-769.373)">
            <path d="M926.311,878.577C918.74,865.696 917.554,866.663 905.212,866.663L164.791,866.663C152.449,866.663 136.719,878.577 136.719,878.577C136.719,878.577 94.236,952.645 81.799,974.327C72.568,990.421 82.603,1007.96 97.318,1007.96L976.216,1007.96C988.559,1007.96 983.81,986.896 979.471,974.327L926.311,878.577Z" style="fill:rgb(156,39,176);"/>
        </g>
        <g transform="matrix(1.05658,0,0,1.03755,-30.7369,-29.817)">
            <path d="M1001.83,271.634C1001.83,259.065 991.813,248.861 979.471,248.861L83.622,248.861C71.28,248.861 61.26,259.065 61.26,271.634L61.26,985.186C61.26,997.755 71.28,1007.96 83.622,1007.96L979.471,1007.96C991.813,1007.96 1001.83,997.755 1001.83,985.186L1001.83,271.634Z" style="fill:url(#_Linear1);"/>
        </g>
        <g transform="matrix(0.457821,0,0,0.5044,-205.751,-313.465)">
            <path d="M1151.45,871.412C1172.34,870.484 1193.86,870 1215.85,870C1412.96,870 1573,908.943 1573,956.911C1573,1004.88 1412.96,1043.82 1215.85,1043.82C1193.86,1043.82 1172.34,1043.34 1151.45,1042.41C1317.88,1035.02 1444.2,999.528 1444.2,956.911C1444.2,914.293 1317.88,878.799 1151.45,871.412Z" style="fill:rgb(117,42,134);fill-opacity:0.713726;"/>
            <g transform="matrix(1.11082,0,0,1.46097,-116.974,-240.108)">
                <path d="M1083.91,759.844C1236.04,759.844 1405.43,709.612 1405.43,709.612C1405.43,709.612 1405.43,814.648 1405.43,819.333C1405.43,852.166 1261.37,878.822 1083.91,878.822C906.46,878.822 762.391,852.166 762.391,819.333C762.391,814.889 762.391,709.612 762.391,709.612C762.391,709.612 930.48,759.844 1083.91,759.844Z" style="fill:url(#_Linear2);"/>
            </g>
            <g transform="matrix(1.11082,0,0,1.46097,-116.974,-405.108)">
                <ellipse cx="1083.91" cy="819.333" rx="321.521" ry="59.489" style="fill:rgb(156,39,176);"/>
            </g>
            <path d="M1441.46,781.094C1443.27,784.638 1444.2,788.248 1444.2,791.911C1444.2,839.878 1284.17,878.822 1087.05,878.822C889.937,878.822 729.903,839.878 729.903,791.911C729.903,790.48 730.045,789.058 730.327,787.644C752.238,830.514 902.668,863.737 1084.73,863.737C1275.97,863.737 1432.31,827.082 1441.46,781.094Z" style="fill:url(#_Linear3);"/>
        </g>
        <g transform="matrix(0.457821,0,0,0.5044,270.056,-311.239)">
            <path d="M1151.45,871.412C1172.34,870.484 1193.86,870 1215.85,870C1356.59,870 1478.42,889.853 1536.6,918.668C1537.15,918.939 1538.23,919.484 1538.23,919.484L1569.76,968.66C1569.76,968.66 1569.37,969.34 1569.17,969.679C1543.76,1011.6 1395.14,1043.82 1215.85,1043.82C1193.86,1043.82 1172.34,1043.34 1151.45,1042.41C1317.88,1035.02 1444.2,999.528 1444.2,956.911C1444.2,914.293 1317.88,878.799 1151.45,871.412Z" style="fill:rgb(128,41,146);fill-opacity:0.713726;"/>
            <g transform="matrix(1.11082,0,0,1.46097,-116.974,-240.108)">
                <path d="M1083.91,759.844C1236.04,759.844 1405.43,709.612 1405.43,709.612C1405.43,709.612 1405.43,814.648 1405.43,819.333C1405.43,852.166 1261.37,878.822 1083.91,878.822C906.46,878.822 762.391,852.166 762.391,819.333C762.391,814.889 762.391,709.612 762.391,709.612C762.391,709.612 930.48,759.844 1083.91,759.844Z" style="fill:url(#_Linear4);"/>
            </g>
            <g transform="matrix(1.11082,0,0,1.46097,-116.974,-405.108)">
                <ellipse cx="1083.91" cy="819.333" rx="321.521" ry="59.489" style="fill:rgb(156,39,176);"/>
            </g>
            <path d="M1441.46,781.094C1443.27,784.638 1444.2,788.248 1444.2,791.911C1444.2,839.878 1284.17,878.822 1087.05,878.822C889.937,878.822 729.903,839.878 729.903,791.911C729.903,790.48 730.045,789.058 730.327,787.644C752.238,830.514 902.668,863.737 1084.73,863.737C1275.97,863.737 1432.31,827.082 1441.46,781.094Z" style="fill:url(#_Linear5);"/>
        </g>
        <g transform="matrix(1,0,0,0.974058,0,10.082)">
            <path d="M1001.83,271.634C1001.83,259.065 991.894,248.861 979.651,248.861L83.442,248.861C71.199,248.861 61.26,259.065 61.26,271.634L61.26,985.186C61.26,997.755 71.199,1007.96 83.442,1007.96L979.651,1007.96C991.894,1007.96 1001.83,997.755 1001.83,985.186L1001.83,271.634Z" style="fill:rgb(156,39,176);"/>
        </g>
        <g transform="matrix(1,0,0,1,8.1636,29.927)">
            <path d="M391.107,400.448C398.599,350.952 424.726,309.957 490.444,293.91C505.003,290.355 658.415,267.705 654.952,442.853C653.514,515.628 612.546,542.218 583.478,580.646C567.756,601.43 558.068,624.736 556.665,627.91C543.414,657.9 512.122,670.832 472.823,663.486C432.967,656.035 416.055,619.109 421.133,594.131C422.382,587.99 428.003,584.981 434.111,585.022C440.038,585.062 444.209,588.148 446.21,594.303C447.339,597.776 447.79,601.49 449.118,604.871C450.753,609.036 452.982,612.967 454.955,616.999C462.509,626.661 472.009,633.219 484.358,634.926C498.049,636.818 509.454,631.586 519.503,622.869C527.533,615.903 533.49,607.315 537.708,597.59C543.959,583.178 551.633,569.656 562.285,557.191C566.974,551.737 622.458,496.763 625.182,442.993C626.807,410.928 615.074,308.167 508.585,322.834C440.086,332.268 422.883,387.128 421.242,397.698C419.28,410.335 419.005,423.234 417.792,436.218C417.623,438.03 417.613,446.505 406.407,445.393C388.25,443.591 389.749,409.417 391.107,400.448Z" style="fill:white;fill-rule:nonzero;"/>
        </g>
        <g transform="matrix(1,0,0,1,8.1636,29.927)">
            <path d="M497.674,454.702C504.054,461.29 532.729,487.312 509.203,515.872C504.779,521.242 499.491,525.84 494.675,530.864C485.964,539.949 484.988,546.625 490.444,558.169C491.132,559.625 491.383,566.007 484.428,568.758C475.54,571.042 469.114,567.103 463.01,561.737C462.828,561.288 459.192,557.22 457.7,551.617C449.494,520.806 472.79,504.958 476.145,502.319C494.815,487.627 468.39,477.647 459.547,465.794C454.701,459.298 453.874,454.879 452.771,450.443C441.268,404.16 469.323,380.132 470.94,378.524C491.869,357.706 544.79,344.757 581.13,398.11C590.813,412.326 594.216,433.334 593.968,450.443C593.866,457.543 594.867,493.796 582.037,497.676C574.922,498.938 568.742,497.634 563,493.565C556.643,485.49 560.635,466.873 561.971,452.43C564.072,429.704 540.249,398.75 514.198,399.58C503.08,399.935 490.301,405.44 486.155,415.056C481.721,425.34 481.616,435.688 489.114,445.393C492.027,448.711 494.81,451.745 497.674,454.702Z" style="fill:white;fill-rule:nonzero;"/>
        </g>
        <g transform="matrix(2.03173,0,0,1.06003,-3423.49,-1205.65)">
            <g transform="matrix(0.5,0,0,1,865.712,0)">
                <rect x="1744.76" y="1806.67" width="29.372" height="154.149" style="fill:white;fill-rule:nonzero;"/>
            </g>
            <g transform="matrix(0.5,0,0,1,865.712,0)">
                <path d="M1797.46,1812.29C1797.46,1807.57 1799.13,1803.72 1802.46,1800.73C1805.79,1797.75 1810.16,1796.25 1815.58,1796.25C1821,1796.25 1825.37,1797.75 1828.7,1800.73C1832.04,1803.72 1833.7,1807.57 1833.7,1812.29C1833.7,1816.88 1832.04,1820.66 1828.7,1823.65C1825.37,1826.63 1821,1828.13 1815.58,1828.13C1810.16,1828.13 1805.79,1826.63 1802.46,1823.65C1799.13,1820.66 1797.46,1816.88 1797.46,1812.29ZM1830.16,1845.41L1830.16,1960.82L1800.79,1960.82L1800.79,1845.41L1830.16,1845.41Z" style="fill:white;fill-rule:nonzero;"/>
            </g>
            <g transform="matrix(0.5,0,0,1,865.712,0)">
                <path d="M1896.61,1843.96C1910.64,1843.96 1921.89,1847.5 1930.36,1854.58C1938.83,1861.66 1944.11,1871.11 1946.19,1882.91L1918.69,1882.91C1917.58,1877.36 1915.08,1872.91 1911.2,1869.58C1907.31,1866.25 1902.24,1864.58 1895.99,1864.58C1890.99,1864.58 1887.1,1865.76 1884.32,1868.12C1881.55,1870.48 1880.16,1873.67 1880.16,1877.7C1880.16,1880.9 1881.27,1883.47 1883.49,1885.41C1885.71,1887.35 1888.49,1888.88 1891.82,1889.99C1895.16,1891.1 1899.95,1892.42 1906.2,1893.95C1914.94,1895.89 1922.06,1897.94 1927.55,1900.1C1933.03,1902.25 1937.76,1905.65 1941.71,1910.3C1945.67,1914.95 1947.65,1921.24 1947.65,1929.15C1947.65,1939.02 1943.8,1947 1936.09,1953.11C1928.38,1959.22 1918,1962.28 1904.95,1962.28C1889.95,1962.28 1877.93,1958.91 1868.91,1952.17C1859.88,1945.44 1854.4,1935.82 1852.45,1923.32L1880.57,1923.32C1881.27,1929.02 1883.77,1933.5 1888.07,1936.76C1892.38,1940.02 1898,1941.65 1904.95,1941.65C1909.95,1941.65 1913.77,1940.44 1916.4,1938.01C1919.04,1935.58 1920.36,1932.42 1920.36,1928.53C1920.36,1925.2 1919.22,1922.49 1916.92,1920.41C1914.63,1918.32 1911.79,1916.73 1908.38,1915.62C1904.98,1914.5 1900.15,1913.18 1893.91,1911.66C1885.3,1909.71 1878.32,1907.73 1872.97,1905.72C1867.62,1903.71 1863.04,1900.48 1859.22,1896.03C1855.4,1891.59 1853.49,1885.48 1853.49,1877.7C1853.49,1867.7 1857.31,1859.58 1864.95,1853.33C1872.59,1847.08 1883.14,1843.96 1896.61,1843.96Z" style="fill:white;fill-rule:nonzero;"/>
            </g>
            <g transform="matrix(0.5,0,0,1,865.712,0)">
                <path d="M2031.18,1935.61L2031.18,1960.82L2015.77,1960.82C2002.85,1960.82 1992.96,1957.69 1986.08,1951.44C1979.21,1945.19 1975.77,1934.78 1975.77,1920.2L1975.77,1870.2L1959.73,1870.2L1959.73,1845.41L1975.77,1845.41L1975.77,1816.88L2005.14,1816.88L2005.14,1845.41L2030.97,1845.41L2030.97,1870.2L2005.14,1870.2L2005.14,1920.61C2005.14,1926.17 2006.25,1930.06 2008.48,1932.28C2010.7,1934.5 2014.45,1935.61 2019.73,1935.61L2031.18,1935.61Z" style="fill:white;fill-rule:nonzero;"/>
            </g>
            <g transform="matrix(0.5,0,0,1,865.712,0)">
                <path d="M2160.75,1898.74C2160.75,1901.66 2160.4,1904.99 2159.71,1908.74L2075.14,1908.74C2075.55,1919.02 2078.33,1926.59 2083.47,1931.45C2088.61,1936.31 2094.99,1938.74 2102.63,1938.74C2109.44,1938.74 2115.1,1937.07 2119.61,1933.74C2124.12,1930.4 2127,1925.89 2128.25,1920.2L2159.29,1920.2C2157.76,1928.25 2154.5,1935.47 2149.5,1941.86C2144.5,1948.25 2138.08,1953.25 2130.23,1956.86C2122.39,1960.47 2113.67,1962.28 2104.09,1962.28C2092.84,1962.28 2082.84,1959.88 2074.09,1955.09C2065.35,1950.3 2058.54,1943.46 2053.68,1934.57C2048.82,1925.68 2046.39,1915.2 2046.39,1903.12C2046.39,1891.03 2048.82,1880.52 2053.68,1871.56C2058.54,1862.6 2065.35,1855.76 2074.09,1851.04C2082.84,1846.32 2092.84,1843.96 2104.09,1843.96C2115.48,1843.96 2125.44,1846.32 2133.98,1851.04C2142.52,1855.76 2149.12,1862.25 2153.77,1870.52C2158.42,1878.78 2160.75,1888.19 2160.75,1898.74ZM2131.17,1895.83C2131.59,1886.38 2129.12,1879.23 2123.78,1874.37C2118.43,1869.51 2111.87,1867.08 2104.09,1867.08C2096.17,1867.08 2089.51,1869.51 2084.09,1874.37C2078.68,1879.23 2075.69,1886.38 2075.14,1895.83L2131.17,1895.83Z" style="fill:white;fill-rule:nonzero;"/>
            </g>
            <g transform="matrix(0.5,0,0,1,865.712,0)">
                <path d="M2250.32,1843.75C2263.66,1843.75 2274.28,1848.12 2282.2,1856.87C2290.11,1865.62 2294.07,1877.91 2294.07,1893.74L2294.07,1960.82L2264.91,1960.82L2264.91,1897.08C2264.91,1887.91 2262.54,1880.79 2257.82,1875.72C2253.1,1870.65 2246.64,1868.12 2238.45,1868.12C2230.12,1868.12 2223.45,1870.83 2218.45,1876.24C2213.45,1881.66 2210.95,1889.44 2210.95,1899.58L2210.95,1960.82L2181.58,1960.82L2181.58,1845.41L2210.95,1845.41L2210.95,1868.54C2214.01,1860.76 2219.04,1854.68 2226.06,1850.31C2233.07,1845.93 2241.16,1843.75 2250.32,1843.75Z" style="fill:white;fill-rule:nonzero;"/>
            </g>
            <g transform="matrix(0.5,0,0,1,865.712,0)">
                <path d="M2456.55,1812.29C2456.55,1807.57 2458.22,1803.72 2461.55,1800.73C2464.88,1797.75 2469.26,1796.25 2474.67,1796.25C2480.09,1796.25 2484.46,1797.75 2487.8,1800.73C2491.13,1803.72 2492.8,1807.57 2492.8,1812.29C2492.8,1816.88 2491.13,1820.66 2487.8,1823.65C2484.46,1826.63 2480.09,1828.13 2474.67,1828.13C2469.26,1828.13 2464.88,1826.63 2461.55,1823.65C2458.22,1820.66 2456.55,1816.88 2456.55,1812.29ZM2489.26,1845.41L2489.26,1960.82L2459.88,1960.82L2459.88,1845.41L2489.26,1845.41Z" style="fill:white;fill-rule:nonzero;"/>
            </g>
            <g transform="matrix(0.5,0,0,1,865.712,0)">
                <path d="M2577.58,1935.61L2577.58,1960.82L2562.16,1960.82C2549.25,1960.82 2539.35,1957.69 2532.48,1951.44C2525.61,1945.19 2522.17,1934.78 2522.17,1920.2L2522.17,1870.2L2506.13,1870.2L2506.13,1845.41L2522.17,1845.41L2522.17,1816.88L2551.54,1816.88L2551.54,1845.41L2577.37,1845.41L2577.37,1870.2L2551.54,1870.2L2551.54,1920.61C2551.54,1926.17 2552.65,1930.06 2554.87,1932.28C2557.09,1934.5 2560.84,1935.61 2566.12,1935.61L2577.58,1935.61Z" style="fill:white;fill-rule:nonzero;"/>
            </g>
        </g>
        <g transform="matrix(2.40407,0,0,2.09567,-790.138,-666.307)">
            <g>
                <rect x="617.994" y="734.44" width="42.918" height="9.916" style="fill:white;"/>
            </g>
        </g>
    </g>
    <defs>
        <linearGradient id="_Linear1" x1="0" y1="0" x2="1" y2="0" gradientUnits="userSpaceOnUse" gradientTransform="matrix(1828.58,-663.676,651.723,1862.12,-400.981,1039.04)"><stop offset="0" style="stop-color:rgb(214,91,253);stop-opacity:1"/><stop offset="0.22" style="stop-color:rgb(106,27,156);stop-opacity:1"/><stop offset="0.55" style="stop-color:rgb(229,95,255);stop-opacity:1"/><stop offset="0.69" style="stop-color:rgb(107,27,157);stop-opacity:1"/><stop offset="0.8" style="stop-color:rgb(197,73,228);stop-opacity:1"/><stop offset="1" style="stop-color:rgb(107,27,157);stop-opacity:1"/></linearGradient>
        <linearGradient id="_Linear2" x1="0" y1="0" x2="1" y2="0" gradientUnits="userSpaceOnUse" gradientTransform="matrix(643.042,0,0,643.042,762.391,794.217)"><stop offset="0" style="stop-color:rgb(214,133,253);stop-opacity:1"/><stop offset="0.22" style="stop-color:rgb(106,27,156);stop-opacity:1"/><stop offset="0.55" style="stop-color:rgb(229,138,255);stop-opacity:1"/><stop offset="0.69" style="stop-color:rgb(107,27,157);stop-opacity:1"/><stop offset="0.8" style="stop-color:rgb(197,104,228);stop-opacity:1"/><stop offset="1" style="stop-color:rgb(107,27,157);stop-opacity:1"/></linearGradient>
        <linearGradient id="_Linear3" x1="0" y1="0" x2="1" y2="0" gradientUnits="userSpaceOnUse" gradientTransform="matrix(1309.35,-540.798,595.818,1188.44,351.957,1123.22)"><stop offset="0" style="stop-color:rgb(214,133,253);stop-opacity:1"/><stop offset="0.22" style="stop-color:rgb(106,27,156);stop-opacity:1"/><stop offset="0.55" style="stop-color:rgb(229,138,255);stop-opacity:1"/><stop offset="0.69" style="stop-color:rgb(107,27,157);stop-opacity:1"/><stop offset="0.8" style="stop-color:rgb(197,104,228);stop-opacity:1"/><stop offset="1" style="stop-color:rgb(107,27,157);stop-opacity:1"/></linearGradient>
        <linearGradient id="_Linear4" x1="0" y1="0" x2="1" y2="0" gradientUnits="userSpaceOnUse" gradientTransform="matrix(643.042,0,0,643.042,762.391,794.217)"><stop offset="0" style="stop-color:rgb(214,133,253);stop-opacity:1"/><stop offset="0.22" style="stop-color:rgb(106,27,156);stop-opacity:1"/><stop offset="0.55" style="stop-color:rgb(229,138,255);stop-opacity:1"/><stop offset="0.69" style="stop-color:rgb(107,27,157);stop-opacity:1"/><stop offset="0.8" style="stop-color:rgb(197,104,228);stop-opacity:1"/><stop offset="1" style="stop-color:rgb(107,27,157);stop-opacity:1"/></linearGradient>
        <linearGradient id="_Linear5" x1="0" y1="0" x2="1" y2="0" gradientUnits="userSpaceOnUse" gradientTransform="matrix(995.998,-381.333,420.129,904.023,604.347,1116.32)"><stop offset="0" style="stop-color:rgb(214,133,253);stop-opacity:1"/><stop offset="0.22" style="stop-color:rgb(106,27,156);stop-opacity:1"/><stop offset="0.55" style="stop-color:rgb(229,138,255);stop-opacity:1"/><stop offset="0.69" style="stop-color:rgb(107,27,157);stop-opacity:1"/><stop offset="0.8" style="stop-color:rgb(197,104,228);stop-opacity:1"/><stop offset="1" style="stop-color:rgb(107,27,157);stop-opacity:1"/></linearGradient>
    </defs>
</svg>
