<?xml version="1.0" encoding="UTF-8" standalone="no"?>
<!DOCTYPE svg PUBLIC "-//W3C//DTD SVG 1.1//EN" "http://www.w3.org/Graphics/SVG/1.1/DTD/svg11.dtd">
<svg width="100%" height="100%" viewBox="0 0 240 240" version="1.1" xmlns="http://www.w3.org/2000/svg" xmlns:xlink="http://www.w3.org/1999/xlink" xml:space="preserve" style="fill-rule:evenodd;clip-rule:evenodd;stroke-linecap:round;stroke-linejoin:round;stroke-miterlimit:1.5;">
    <g transform="matrix(1.24573,0,0,1.24573,103.877,128.485)">
        <g id="Main5.2e.1" transform="matrix(1,0,0,1,-144,-120)">
            <g>
                <path d="M132.097,142.96C131.477,141.969 131.38,142.044 130.37,142.044L69.77,142.044C68.76,142.044 67.473,142.96 67.473,142.96C67.473,142.96 63.996,148.659 62.978,150.327C62.222,151.565 63.044,152.914 64.248,152.914L136.181,152.914C137.192,152.914 136.803,151.294 136.448,150.327L132.097,142.96Z" style="fill:rgb(156,39,176);"/>
                <path d="M136.925,151.694C136.925,150.719 136.134,149.928 135.16,149.928L64.428,149.928C63.453,149.928 62.662,150.719 62.662,151.694L62.662,207.018C62.662,207.992 63.453,208.784 64.428,208.784L135.16,208.784C136.134,208.784 136.925,207.992 136.925,207.018L136.925,151.694Z" style="fill:url(#_Linear1);"/>
                <g>
                    <path d="M84.14,142.282C84.855,142.247 85.591,142.229 86.343,142.229C93.087,142.229 98.562,143.697 98.562,145.505C98.562,147.313 93.087,148.781 86.343,148.781C85.591,148.781 84.855,148.763 84.14,148.728C89.834,148.449 94.156,147.111 94.156,145.505C94.156,143.899 89.834,142.561 84.14,142.282Z" style="fill:rgb(117,42,134);fill-opacity:0.713726;"/>
                    <path d="M81.937,142.229C87.719,142.229 94.156,139.463 94.156,139.463C94.156,139.463 94.156,145.247 94.156,145.505C94.156,147.313 88.681,148.781 81.937,148.781C75.194,148.781 69.718,147.313 69.718,145.505C69.718,145.26 69.718,139.463 69.718,139.463C69.718,139.463 76.106,142.229 81.937,142.229Z" style="fill:url(#_Linear2);"/>
                    <ellipse cx="81.937" cy="139.286" rx="12.219" ry="3.276" style="fill:rgb(156,39,176);"/>
                    <path d="M94.062,138.878C94.124,139.012 94.156,139.148 94.156,139.286C94.156,141.094 88.681,142.562 81.937,142.562C75.193,142.562 69.718,141.094 69.718,139.286C69.718,139.232 69.723,139.178 69.733,139.125C70.482,140.741 75.629,141.993 81.858,141.993C88.4,141.993 93.749,140.612 94.062,138.878Z" style="fill:url(#_Linear3);"/>
                </g>
                <g>
                    <path d="M119.696,142.449C120.411,142.414 121.147,142.396 121.899,142.396C126.714,142.396 130.882,143.144 132.873,144.23C132.891,144.24 132.928,144.261 132.928,144.261L134.007,146.114C134.007,146.114 133.994,146.14 133.987,146.153C133.118,147.733 128.033,148.947 121.899,148.947C121.147,148.947 120.411,148.929 119.696,148.894C125.39,148.616 129.712,147.278 129.712,145.671C129.712,144.065 125.39,142.727 119.696,142.449Z" style="fill:rgb(128,41,146);fill-opacity:0.713726;"/>
                    <path d="M117.493,142.396C123.274,142.396 129.712,139.629 129.712,139.629C129.712,139.629 129.712,145.414 129.712,145.672C129.712,147.48 124.237,148.947 117.493,148.947C110.749,148.947 105.274,147.48 105.274,145.672C105.274,145.427 105.274,139.629 105.274,139.629C105.274,139.629 111.662,142.396 117.493,142.396Z" style="fill:url(#_Linear4);"/>
                    <ellipse cx="117.493" cy="139.452" rx="12.219" ry="3.276" style="fill:rgb(156,39,176);"/>
                    <path d="M129.618,139.044C129.68,139.178 129.712,139.314 129.712,139.452C129.712,141.26 124.237,142.728 117.493,142.728C110.749,142.728 105.274,141.26 105.274,139.452C105.274,139.398 105.279,139.345 105.289,139.291C106.038,140.907 111.185,142.159 117.413,142.159C123.956,142.159 129.305,140.778 129.618,139.044Z" style="fill:url(#_Linear5);"/>
                </g>
                <path d="M134.986,153.386C134.986,152.472 134.244,151.729 133.329,151.729L66.358,151.729C65.443,151.729 64.7,152.472 64.7,153.386L64.7,205.325C64.7,206.24 65.443,206.983 66.358,206.983L133.329,206.983C134.244,206.983 134.986,206.24 134.986,205.325L134.986,153.386Z" style="fill:rgb(156,39,176);"/>
                <path d="M89.959,165.022C90.519,161.323 92.471,158.26 97.382,157.061C98.47,156.795 109.934,155.102 109.675,168.191C109.568,173.629 106.506,175.616 104.334,178.488C103.159,180.041 102.435,181.782 102.33,182.02C101.34,184.261 99.002,185.227 96.065,184.678C93.087,184.121 91.823,181.362 92.203,179.495C92.296,179.036 92.716,178.812 93.172,178.815C93.615,178.818 93.927,179.048 94.076,179.508C94.161,179.768 94.195,180.045 94.294,180.298C94.416,180.609 94.583,180.903 94.73,181.204C95.294,181.926 96.004,182.416 96.927,182.544C97.95,182.685 98.803,182.294 99.553,181.643C100.154,181.122 100.599,180.481 100.914,179.754C101.381,178.677 101.954,177.666 102.75,176.735C103.101,176.327 107.247,172.219 107.451,168.201C107.572,165.805 106.695,158.126 98.738,159.222C93.619,159.927 92.333,164.027 92.211,164.816C92.064,165.761 92.044,166.725 91.953,167.695C91.94,167.83 91.939,168.464 91.102,168.381C89.745,168.246 89.857,165.692 89.959,165.022Z" style="fill:white;fill-rule:nonzero;"/>
                <path d="M97.922,169.076C98.399,169.569 100.542,171.513 98.784,173.647C98.453,174.049 98.058,174.392 97.698,174.768C97.047,175.446 96.974,175.945 97.382,176.808C97.433,176.917 97.452,177.394 96.932,177.599C96.268,177.77 95.788,177.476 95.332,177.075C95.318,177.041 95.047,176.737 94.935,176.318C94.322,174.016 96.063,172.832 96.313,172.634C97.709,171.537 95.734,170.791 95.073,169.905C94.711,169.42 94.649,169.089 94.567,168.758C93.707,165.299 95.804,163.504 95.924,163.384C97.488,161.828 101.443,160.86 104.159,164.847C104.882,165.91 105.137,167.479 105.118,168.758C105.11,169.289 105.185,171.998 104.226,172.288C103.695,172.382 103.233,172.284 102.804,171.98C102.329,171.377 102.627,169.986 102.727,168.906C102.884,167.208 101.104,164.895 99.157,164.957C98.326,164.984 97.371,165.395 97.061,166.114C96.73,166.882 96.722,167.655 97.283,168.381C97.5,168.629 97.708,168.855 97.922,169.076Z" style="fill:white;fill-rule:nonzero;"/>
                <g>
                    <rect x="68.181" y="185.878" width="2.23" height="12.211" style="fill:white;"/>
                    <path d="M72.182,186.323C72.182,185.95 72.309,185.645 72.561,185.408C72.814,185.172 73.146,185.053 73.557,185.053C73.969,185.053 74.301,185.172 74.553,185.408C74.807,185.645 74.933,185.95 74.933,186.323C74.933,186.687 74.807,186.986 74.553,187.223C74.301,187.459 73.969,187.578 73.557,187.578C73.146,187.578 72.814,187.459 72.561,187.223C72.309,186.986 72.182,186.687 72.182,186.323ZM74.664,188.947L74.664,198.089L72.435,198.089L72.435,188.947L74.664,188.947Z" style="fill:white;fill-rule:nonzero;"/>
                    <path d="M79.709,188.832C80.774,188.832 81.628,189.113 82.271,189.673C82.914,190.234 83.314,190.983 83.472,191.918L81.385,191.918C81.3,191.478 81.111,191.125 80.816,190.862C80.521,190.598 80.136,190.466 79.662,190.466C79.282,190.466 78.987,190.559 78.776,190.746C78.565,190.933 78.46,191.186 78.46,191.505C78.46,191.758 78.544,191.962 78.713,192.116C78.881,192.269 79.092,192.39 79.345,192.478C79.599,192.566 79.962,192.671 80.437,192.792C81.1,192.946 81.641,193.108 82.057,193.279C82.473,193.449 82.832,193.719 83.132,194.087C83.433,194.456 83.583,194.954 83.583,195.58C83.583,196.362 83.291,196.994 82.706,197.478C82.12,197.962 81.332,198.205 80.342,198.205C79.203,198.205 78.291,197.938 77.606,197.404C76.92,196.871 76.504,196.109 76.356,195.119L78.491,195.119C78.544,195.57 78.734,195.925 79.06,196.183C79.387,196.441 79.814,196.57 80.342,196.57C80.721,196.57 81.011,196.475 81.211,196.282C81.411,196.09 81.512,195.839 81.512,195.531C81.512,195.267 81.425,195.053 81.25,194.888C81.077,194.722 80.861,194.597 80.602,194.509C80.344,194.42 79.977,194.315 79.504,194.195C78.85,194.04 78.32,193.884 77.914,193.724C77.508,193.565 77.16,193.309 76.87,192.957C76.58,192.605 76.435,192.121 76.435,191.505C76.435,190.713 76.725,190.069 77.305,189.574C77.885,189.079 78.686,188.832 79.709,188.832Z" style="fill:white;fill-rule:nonzero;"/>
                    <path d="M89.924,196.092L89.924,198.089L88.754,198.089C87.774,198.089 87.023,197.841 86.501,197.346C85.979,196.851 85.718,196.026 85.718,194.871L85.718,190.911L84.5,190.911L84.5,188.947L85.718,188.947L85.718,186.687L87.947,186.687L87.947,188.947L89.908,188.947L89.908,190.911L87.947,190.911L87.947,194.904C87.947,195.344 88.032,195.652 88.201,195.828C88.369,196.004 88.654,196.092 89.055,196.092L89.924,196.092Z" style="fill:white;fill-rule:nonzero;"/>
                    <path d="M99.76,193.171C99.76,193.403 99.734,193.667 99.681,193.964L93.261,193.964C93.292,194.778 93.503,195.378 93.894,195.763C94.284,196.147 94.768,196.34 95.348,196.34C95.865,196.34 96.295,196.208 96.637,195.944C96.98,195.679 97.198,195.322 97.293,194.871L99.649,194.871C99.533,195.509 99.286,196.081 98.906,196.587C98.527,197.093 98.039,197.489 97.443,197.775C96.848,198.061 96.186,198.205 95.459,198.205C94.605,198.205 93.846,198.015 93.182,197.635C92.518,197.256 92.001,196.714 91.632,196.01C91.263,195.305 91.079,194.475 91.079,193.518C91.079,192.561 91.263,191.728 91.632,191.018C92.001,190.309 92.518,189.767 93.182,189.393C93.846,189.019 94.605,188.832 95.459,188.832C96.324,188.832 97.08,189.019 97.728,189.393C98.376,189.767 98.877,190.281 99.23,190.936C99.583,191.59 99.76,192.336 99.76,193.171ZM97.515,192.941C97.547,192.192 97.359,191.626 96.954,191.241C96.548,190.856 96.05,190.664 95.459,190.664C94.858,190.664 94.352,190.856 93.941,191.241C93.53,191.626 93.303,192.192 93.261,192.941L97.515,192.941Z" style="fill:white;fill-rule:nonzero;"/>
                    <path d="M106.56,188.816C107.572,188.816 108.379,189.162 108.98,189.855C109.58,190.548 109.881,191.521 109.881,192.775L109.881,198.089L107.667,198.089L107.667,193.04C107.667,192.314 107.487,191.75 107.129,191.348C106.771,190.946 106.28,190.746 105.659,190.746C105.026,190.746 104.52,190.961 104.14,191.389C103.761,191.818 103.571,192.435 103.571,193.238L103.571,198.089L101.341,198.089L101.341,188.947L103.571,188.947L103.571,190.779C103.803,190.163 104.185,189.681 104.718,189.335C105.25,188.988 105.864,188.816 106.56,188.816Z" style="fill:white;fill-rule:nonzero;"/>
                    <path d="M122.215,186.323C122.215,185.95 122.342,185.645 122.595,185.408C122.848,185.172 123.18,185.053 123.591,185.053C124.002,185.053 124.334,185.172 124.588,185.408C124.84,185.645 124.967,185.95 124.967,186.323C124.967,186.687 124.84,186.986 124.588,187.223C124.334,187.459 124.002,187.578 123.591,187.578C123.18,187.578 122.848,187.459 122.595,187.223C122.342,186.986 122.215,186.687 122.215,186.323ZM124.698,188.947L124.698,198.089L122.468,198.089L122.468,188.947L124.698,188.947Z" style="fill:white;fill-rule:nonzero;"/>
                    <path d="M131.403,196.092L131.403,198.089L130.232,198.089C129.252,198.089 128.501,197.841 127.979,197.346C127.458,196.851 127.197,196.026 127.197,194.871L127.197,190.911L125.979,190.911L125.979,188.947L127.197,188.947L127.197,186.687L129.426,186.687L129.426,188.947L131.387,188.947L131.387,190.911L129.426,190.911L129.426,194.904C129.426,195.344 129.51,195.652 129.679,195.828C129.848,196.004 130.132,196.092 130.533,196.092L131.403,196.092Z" style="fill:white;fill-rule:nonzero;"/>
                </g>
                <rect x="112.1" y="198.086" width="7.71" height="1.553" style="fill:white;"/>
            </g>
            <g id="get_it">
                <g transform="matrix(1.546,0,0,1,-74.7915,0)">
                    <path d="M206.391,142.803C205.771,141.777 205.674,141.854 204.664,141.854L144.064,141.854C143.054,141.854 141.766,142.803 141.766,142.803C141.766,142.803 138.29,148.702 137.272,150.428C136.516,151.71 137.337,153.107 138.542,153.107L210.475,153.107C211.485,153.107 211.097,151.429 210.742,150.428L208.263,146.085L206.391,142.803Z" style="fill:rgb(251,181,51);"/>
                </g>
                <g transform="matrix(1.54345,0,0,1,-74.4271,0)">
                    <path d="M211.217,151.996C211.217,151.027 210.426,150.24 209.451,150.24L138.72,150.24C137.745,150.24 136.954,151.027 136.954,151.996L136.954,207.032C136.954,208.001 137.745,208.788 138.72,208.788L209.451,208.788C210.426,208.788 211.217,208.001 211.217,207.032L211.217,151.996Z" style="fill:url(#_Linear6);"/>
                </g>
                <g>
                    <path d="M193.864,141.749C194.589,141.717 195.336,141.7 196.099,141.7C200.452,141.7 204.284,142.245 206.494,143.068C206.53,143.081 206.602,143.108 206.602,143.108L207.994,145.542C207.994,145.542 207.955,145.573 207.935,145.589C206.368,146.811 201.658,147.699 196.099,147.699C195.336,147.699 194.589,147.683 193.864,147.65C199.639,147.396 204.021,146.17 204.021,144.7C204.021,143.229 199.639,142.004 193.864,141.749Z" style="fill:rgb(223,157,30);fill-opacity:0.713726;"/>
                    <path d="M191.63,141.913C197.493,141.913 204.021,139.167 204.021,139.167C204.021,139.167 204.021,144.908 204.021,145.164C204.021,146.959 198.469,148.416 191.63,148.416C184.792,148.416 179.239,146.959 179.239,145.164C179.239,144.921 179.239,139.167 179.239,139.167L191.63,141.913Z" style="fill:url(#_Linear7);"/>
                    <ellipse cx="191.63" cy="139.005" rx="12.391" ry="3" style="fill:rgb(254,185,57);"/>
                    <path d="M203.926,138.632C203.989,138.754 204.021,138.879 204.021,139.005C204.021,140.66 198.469,142.004 191.63,142.004C184.792,142.004 179.239,140.66 179.239,139.005C179.239,138.956 179.244,138.906 179.254,138.858C180.014,140.337 185.233,141.484 191.55,141.484C198.185,141.484 203.608,140.219 203.926,138.632Z" style="fill:url(#_Linear8);"/>
                </g>
                <g>
                    <path d="M158.598,141.749C159.323,141.717 160.07,141.7 160.833,141.7C166.236,141.7 170.836,142.539 172.529,143.708C172.534,143.711 172.543,143.717 172.543,143.717L173.211,144.837C173.211,144.837 173.21,144.845 173.209,144.849C172.886,146.435 167.464,147.699 160.833,147.699C160.07,147.699 159.323,147.683 158.598,147.65C164.373,147.396 168.755,146.17 168.755,144.7C168.755,143.229 164.373,142.004 158.598,141.749Z" style="fill:rgb(223,157,30);fill-opacity:0.713726;"/>
                    <path d="M156.364,141.913C162.227,141.913 168.755,139.167 168.755,139.167C168.755,139.167 168.755,144.908 168.755,145.164C168.755,146.959 163.203,148.416 156.364,148.416C149.526,148.416 143.973,146.959 143.973,145.164C143.973,144.921 143.973,139.167 143.973,139.167L156.364,141.913Z" style="fill:url(#_Linear9);"/>
                    <ellipse cx="156.364" cy="139.005" rx="12.391" ry="3" style="fill:rgb(254,185,57);"/>
                    <path d="M168.66,138.632C168.723,138.754 168.755,138.879 168.755,139.005C168.755,140.66 163.203,142.004 156.364,142.004C149.526,142.004 143.973,140.66 143.973,139.005C143.973,138.956 143.978,138.906 143.988,138.858C144.748,140.337 149.967,141.484 156.284,141.484C162.919,141.484 168.342,140.219 168.66,138.632Z" style="fill:url(#_Linear10);"/>
                </g>
                <g transform="matrix(1.57386,0,0,1,-79.7216,0)">
                    <path d="M209.228,153.68C209.228,152.77 208.486,152.031 207.571,152.031L140.6,152.031C139.685,152.031 138.942,152.77 138.942,153.68L138.942,205.348C138.942,206.258 139.685,206.997 140.6,206.997L207.571,206.997C208.486,206.997 209.228,206.258 209.228,205.348L209.228,153.68Z" style="fill:rgb(238,168,37);"/>
                </g>
                <g transform="matrix(1,0,0,1,19.496,-0.161154)">
                    <path d="M162.973,160L187.382,160L177.852,160L177.852,167.442" style="fill:none;stroke:rgb(252,241,230);stroke-width:1.78px;"/>
                    <path d="M172.561,160L172.561,167.704" style="fill:none;stroke:rgb(252,241,230);stroke-width:1.78px;"/>
                    <path d="M171.534,163.571L178.882,163.571" style="fill:none;stroke:rgb(252,241,230);stroke-width:1.78px;"/>
                    <path d="M166.841,168.317L171.658,168.317" style="fill:none;stroke:rgb(252,241,230);stroke-width:1.78px;"/>
                    <path d="M178.602,168.317L183.054,168.317L187.382,175.617L183.054,182.839L181.378,181.648L183.054,175.617L181.378,172.924L178.368,172.924" style="fill:none;stroke:rgb(252,241,230);stroke-width:1.78px;"/>
                    <path d="M171.898,172.924L168.676,172.924L166.557,175.617L168.512,181.648L166.841,182.839L162.155,175.617L166.841,168.317" style="fill:none;stroke:rgb(252,241,230);stroke-width:1.78px;"/>
                    <path d="M175.208,166.102C177.603,166.102 179.547,168.069 179.547,170.492C179.547,172.914 177.603,174.882 175.208,174.882C172.813,174.882 170.869,172.914 170.869,170.492C170.869,168.069 172.813,166.102 175.208,166.102ZM175.208,167.199C177.004,167.199 178.462,168.675 178.462,170.492C178.462,172.309 177.004,173.784 175.208,173.784C173.412,173.784 171.954,172.309 171.954,170.492C171.954,168.675 173.412,167.199 175.208,167.199Z" style="fill:rgb(252,241,230);stroke:rgb(252,241,230);stroke-width:0.53px;stroke-linecap:butt;stroke-miterlimit:1.41421;"/>
                </g>
                <g transform="matrix(1,0,0,1,18,0)">
                    <rect x="180.237" y="197.995" width="5.579" height="1.556" style="fill:white;"/>
                </g>
                <g transform="matrix(1,0,0,1,18,0)">
                    <path d="M155.301,188.606C156.085,188.606 156.758,188.79 157.318,189.158C157.879,189.526 158.277,190.023 158.512,190.647L158.512,188.723L160.866,188.723L160.866,198.023C160.866,198.882 160.695,199.654 160.353,200.34C160.011,201.025 159.501,201.563 158.823,201.954C158.145,202.344 157.324,202.539 156.36,202.539C155.015,202.539 153.928,202.221 153.098,201.586C152.269,200.95 151.764,200.086 151.585,198.993L153.922,198.993C154.057,199.461 154.317,199.827 154.704,200.089C155.091,200.351 155.586,200.482 156.192,200.482C156.887,200.482 157.447,200.278 157.873,199.871C158.299,199.464 158.512,198.848 158.512,198.023L158.512,196.049C158.277,196.674 157.879,197.173 157.318,197.546C156.758,197.92 156.085,198.107 155.301,198.107C154.516,198.107 153.81,197.917 153.182,197.538C152.555,197.159 152.064,196.61 151.711,195.891C151.358,195.171 151.181,194.327 151.181,193.356C151.181,192.386 151.358,191.542 151.711,190.823C152.064,190.103 152.555,189.554 153.182,189.175C153.81,188.796 154.516,188.606 155.301,188.606ZM156.041,190.664C155.301,190.664 154.707,190.904 154.258,191.383C153.81,191.862 153.586,192.52 153.586,193.356C153.586,194.193 153.81,194.848 154.258,195.322C154.707,195.796 155.301,196.033 156.041,196.033C156.758,196.033 157.349,195.79 157.815,195.305C158.28,194.82 158.512,194.17 158.512,193.356C158.512,192.532 158.28,191.876 157.815,191.391C157.349,190.906 156.758,190.664 156.041,190.664Z" style="fill:white;fill-rule:nonzero;"/>
                    <g>
                        <path d="M171.803,193.005C171.803,193.24 171.775,193.507 171.719,193.808L164.892,193.808C164.926,194.633 165.15,195.241 165.565,195.631C165.98,196.022 166.495,196.217 167.112,196.217C167.661,196.217 168.118,196.083 168.482,195.815C168.846,195.548 169.079,195.185 169.18,194.728L171.685,194.728C171.562,195.375 171.298,195.955 170.895,196.468C170.491,196.98 169.973,197.382 169.34,197.672C168.706,197.962 168.003,198.107 167.229,198.107C166.321,198.107 165.515,197.914 164.808,197.53C164.102,197.145 163.553,196.596 163.16,195.882C162.768,195.169 162.572,194.327 162.572,193.356C162.572,192.386 162.768,191.542 163.16,190.823C163.553,190.103 164.102,189.554 164.808,189.175C165.515,188.796 166.321,188.606 167.229,188.606C168.149,188.606 168.953,188.796 169.642,189.175C170.332,189.554 170.864,190.076 171.24,190.739C171.615,191.402 171.803,192.158 171.803,193.005ZM169.415,192.771C169.449,192.013 169.25,191.439 168.818,191.048C168.387,190.658 167.857,190.463 167.229,190.463C166.591,190.463 166.052,190.658 165.615,191.048C165.178,191.439 164.937,192.013 164.892,192.771L169.415,192.771Z" style="fill:white;fill-rule:nonzero;"/>
                        <path d="M178.461,195.966L178.461,197.99L177.217,197.99C176.174,197.99 175.376,197.739 174.821,197.237C174.266,196.735 173.988,195.899 173.988,194.728L173.988,190.714L172.694,190.714L172.694,188.723L173.988,188.723L173.988,186.432L176.359,186.432L176.359,188.723L178.444,188.723L178.444,190.714L176.359,190.714L176.359,194.762C176.359,195.208 176.449,195.52 176.628,195.698C176.808,195.877 177.11,195.966 177.536,195.966L178.461,195.966Z" style="fill:white;fill-rule:nonzero;"/>
                        <path d="M187.221,186.064C187.221,185.685 187.355,185.375 187.624,185.136C187.893,184.896 188.246,184.776 188.684,184.776C189.121,184.776 189.474,184.896 189.743,185.136C190.012,185.375 190.146,185.685 190.146,186.064C190.146,186.432 190.012,186.736 189.743,186.976C189.474,187.215 189.121,187.335 188.684,187.335C188.246,187.335 187.893,187.215 187.624,186.976C187.355,186.736 187.221,186.432 187.221,186.064ZM189.86,188.723L189.86,197.99L187.49,197.99L187.49,188.723L189.86,188.723Z" style="fill:white;fill-rule:nonzero;"/>
                        <path d="M196.989,195.966L196.989,197.99L195.745,197.99C194.703,197.99 193.904,197.739 193.349,197.237C192.794,196.735 192.517,195.899 192.517,194.728L192.517,190.714L191.222,190.714L191.222,188.723L192.517,188.723L192.517,186.432L194.888,186.432L194.888,188.723L196.972,188.723L196.972,190.714L194.888,190.714L194.888,194.762C194.888,195.208 194.977,195.52 195.157,195.698C195.336,195.877 195.639,195.966 196.064,195.966L196.989,195.966Z" style="fill:white;fill-rule:nonzero;"/>
                    </g>
                </g>
            </g>
            <g id="watch_it">
                <path d="M246.759,84.616C246.13,83.632 245.828,83.369 244.803,83.369L181.292,83.369C180.267,83.369 179.367,84.616 179.367,84.616C179.367,84.616 177.643,90.272 176.61,91.928C175.843,93.157 176.677,94.496 177.899,94.496L250.904,94.496C251.929,94.496 251.535,92.888 251.174,91.928L246.759,84.616Z" style="fill:rgb(37,154,78);"/>
                <path d="M251.536,93.388C251.536,92.421 250.734,91.636 249.747,91.636L178.08,91.636C177.093,91.636 176.291,92.421 176.291,93.388L176.291,148.304C176.291,149.272 177.093,150.057 178.08,150.057L249.747,150.057C250.734,150.057 251.536,149.272 251.536,148.304L251.536,93.388Z" style="fill:url(#_Linear11);"/>
                <g>
                    <path d="M234.556,83.54C235.279,83.507 236.024,83.489 236.785,83.489C240.361,83.489 243.585,83.878 245.843,84.499C245.854,84.501 245.875,84.507 245.875,84.507L247.679,88.139C247.679,88.139 247.669,88.144 247.664,88.146C245.572,89.133 241.483,89.803 236.785,89.803C236.024,89.803 235.279,89.786 234.556,89.752C240.317,89.484 244.69,88.194 244.69,86.646C244.69,85.098 240.317,83.809 234.556,83.54Z" style="fill:rgb(17,114,51);fill-opacity:0.713726;"/>
                    <path d="M232.327,83.522C238.177,83.522 244.69,80.823 244.69,80.823C244.69,80.823 244.69,86.466 244.69,86.718C244.69,88.482 239.15,89.914 232.327,89.914C225.503,89.914 219.964,88.482 219.964,86.718C219.964,86.479 219.964,80.823 219.964,80.823C219.964,80.823 226.427,83.522 232.327,83.522Z" style="fill:url(#_Linear12);"/>
                    <ellipse cx="232.327" cy="80.653" rx="12.363" ry="3.157" style="fill:rgb(53,170,88);"/>
                    <path d="M244.595,80.26C244.657,80.388 244.69,80.519 244.69,80.652C244.69,82.395 239.15,83.81 232.327,83.81C225.503,83.81 219.964,82.395 219.964,80.652C219.964,80.6 219.968,80.549 219.978,80.498C220.737,82.055 225.944,83.262 232.246,83.262C238.866,83.262 244.278,81.93 244.595,80.26Z" style="fill:url(#_Linear13);"/>
                </g>
                <g>
                    <path d="M197.899,83.204C198.622,83.171 199.367,83.153 200.128,83.153C203.704,83.153 206.928,83.542 209.186,84.163C209.197,84.165 209.218,84.171 209.218,84.171C212.61,85.369 212.989,86.58 211.022,87.803C211.022,87.803 211.012,87.808 211.007,87.811C208.915,88.797 204.826,89.467 200.128,89.467C199.367,89.467 198.622,89.45 197.899,89.416C203.66,89.148 208.032,87.858 208.032,86.31C208.032,84.762 203.66,83.473 197.899,83.204Z" style="fill:rgb(17,114,51);fill-opacity:0.713726;"/>
                    <path d="M195.669,83.186C201.519,83.186 208.033,80.487 208.033,80.487C208.033,80.487 208.033,86.13 208.033,86.382C208.033,88.146 202.493,89.578 195.669,89.578C188.846,89.578 183.307,88.146 183.307,86.382C183.307,86.143 183.307,80.487 183.307,80.487L195.669,83.186Z" style="fill:url(#_Linear14);"/>
                    <ellipse cx="195.669" cy="80.317" rx="12.363" ry="3.157" style="fill:rgb(53,170,88);"/>
                    <path d="M207.938,79.924C208,80.052 208.032,80.184 208.032,80.317C208.032,82.059 202.493,83.474 195.669,83.474C188.846,83.474 183.306,82.059 183.306,80.317C183.306,80.265 183.311,80.213 183.321,80.162C184.079,81.719 189.287,82.926 195.589,82.926C202.209,82.926 207.621,81.594 207.938,79.924Z" style="fill:url(#_Linear15);"/>
                </g>
                <path d="M249.774,94.965C249.774,94.057 249.016,93.319 248.083,93.319L179.785,93.319C178.852,93.319 178.095,94.057 178.095,94.965L178.095,146.521C178.095,147.429 178.852,148.166 179.785,148.166L248.083,148.166C249.016,148.166 249.774,147.429 249.774,146.521L249.774,94.965Z" style="fill:rgb(37,154,78);"/>
                <rect x="232.65" y="139.235" width="4.969" height="1.553" style="fill:white;"/>
                <g>
                    <path d="M193.24,129.742L190.845,139.117L188.337,139.117L186.425,132.297L184.464,139.117L181.956,139.117L179.578,129.742L181.844,129.742L183.29,136.985L185.268,129.742L187.662,129.742L189.655,136.985L191.118,129.742L193.24,129.742Z" style="fill:white;fill-rule:nonzero;"/>
                    <path d="M197.853,129.623C198.603,129.623 199.246,129.809 199.782,130.181C200.318,130.554 200.698,131.056 200.923,131.688L200.923,129.742L203.173,129.742L203.173,139.117L200.923,139.117L200.923,137.154C200.698,137.786 200.318,138.29 199.782,138.668C199.246,139.046 198.603,139.235 197.853,139.235C197.103,139.235 196.428,139.044 195.828,138.66C195.228,138.276 194.759,137.721 194.421,136.993C194.084,136.265 193.915,135.411 193.915,134.429C193.915,133.448 194.084,132.593 194.421,131.865C194.759,131.137 195.228,130.582 195.828,130.198C196.428,129.815 197.103,129.623 197.853,129.623ZM198.56,131.704C197.853,131.704 197.285,131.947 196.856,132.432C196.428,132.918 196.213,133.583 196.213,134.429C196.213,135.275 196.428,135.938 196.856,136.418C197.285,136.897 197.853,137.137 198.56,137.137C199.246,137.137 199.811,136.891 200.256,136.401C200.701,135.91 200.923,135.253 200.923,134.429C200.923,133.594 200.701,132.932 200.256,132.441C199.811,131.95 199.246,131.704 198.56,131.704Z" style="fill:white;fill-rule:nonzero;"/>
                    <path d="M209.988,137.069L209.988,139.117L208.799,139.117C207.802,139.117 207.039,138.863 206.508,138.355C205.978,137.848 205.713,137.001 205.713,135.817L205.713,131.755L204.475,131.755L204.475,129.742L205.713,129.742L205.713,127.423L207.979,127.423L207.979,129.742L209.972,129.742L209.972,131.755L207.979,131.755L207.979,135.851C207.979,136.302 208.065,136.618 208.236,136.798C208.408,136.979 208.697,137.069 209.104,137.069L209.988,137.069Z" style="fill:white;fill-rule:nonzero;"/>
                    <path d="M215.614,129.623C216.76,129.623 217.717,129.95 218.483,130.604C219.249,131.259 219.729,132.15 219.921,133.278L217.526,133.278C217.43,132.782 217.21,132.39 216.868,132.102C216.525,131.814 216.091,131.671 215.566,131.671C214.966,131.671 214.465,131.905 214.063,132.373C213.661,132.841 213.46,133.526 213.46,134.429C213.46,135.332 213.661,136.017 214.063,136.485C214.465,136.954 214.966,137.188 215.566,137.188C216.091,137.188 216.525,137.044 216.868,136.756C217.21,136.468 217.43,136.076 217.526,135.58L219.921,135.58C219.729,136.708 219.249,137.599 218.483,138.254C217.717,138.908 216.76,139.235 215.614,139.235C214.746,139.235 213.974,139.041 213.299,138.652C212.624,138.262 212.099,137.707 211.724,136.985C211.349,136.263 211.162,135.411 211.162,134.429C211.162,133.448 211.349,132.593 211.724,131.865C212.099,131.137 212.624,130.582 213.299,130.198C213.974,129.815 214.746,129.623 215.614,129.623Z" style="fill:white;fill-rule:nonzero;"/>
                    <path d="M226.833,129.606C227.862,129.606 228.681,129.962 229.292,130.672C229.903,131.383 230.208,132.381 230.208,133.668L230.208,139.117L227.958,139.117L227.958,133.938C227.958,133.194 227.776,132.615 227.412,132.204C227.047,131.792 226.549,131.586 225.917,131.586C225.274,131.586 224.759,131.806 224.374,132.246C223.988,132.686 223.795,133.318 223.795,134.142L223.795,139.117L221.529,139.117L221.529,126.594L223.795,126.594L223.795,131.62C224.031,130.988 224.419,130.495 224.96,130.139C225.501,129.784 226.126,129.606 226.833,129.606Z" style="fill:white;fill-rule:nonzero;"/>
                    <path d="M238.952,127.051C238.952,126.667 239.081,126.354 239.338,126.111C239.595,125.869 239.933,125.747 240.351,125.747C240.768,125.747 241.106,125.869 241.363,126.111C241.62,126.354 241.749,126.667 241.749,127.051C241.749,127.423 241.62,127.73 241.363,127.973C241.106,128.215 240.768,128.337 240.351,128.337C239.933,128.337 239.595,128.215 239.338,127.973C239.081,127.73 238.952,127.423 238.952,127.051ZM241.476,129.742L241.476,139.117L239.209,139.117L239.209,129.742L241.476,129.742Z" style="fill:white;fill-rule:nonzero;"/>
                    <path d="M248.291,137.069L248.291,139.117L247.101,139.117C246.105,139.117 245.341,138.863 244.811,138.355C244.28,137.848 244.015,137.001 244.015,135.817L244.015,131.755L242.778,131.755L242.778,129.742L244.015,129.742L244.015,127.423L246.282,127.423L246.282,129.742L248.275,129.742L248.275,131.755L246.282,131.755L246.282,135.851C246.282,136.302 246.367,136.618 246.539,136.798C246.71,136.979 247,137.069 247.407,137.069L248.291,137.069Z" style="fill:white;fill-rule:nonzero;"/>
                </g>
                <path d="M233.454,110.009C224.513,130.787 201.868,126.205 194.414,111.518C203.555,96.147 218.648,91.523 233.454,110.009ZM229.751,110.947C229.69,110.868 229.629,110.79 229.568,110.712C219.328,97.691 206.685,98.815 198.082,111.518C205.897,124.495 221.96,123.857 229.751,110.947Z" style="fill:white;fill-rule:nonzero;"/>
                <path d="M213.934,104.602C217.157,104.602 219.773,107.483 219.773,111.031C219.773,114.58 217.157,117.461 213.934,117.461C210.711,117.461 208.095,114.58 208.095,111.031C208.095,107.483 210.711,104.602 213.934,104.602ZM213.934,107.816C215.546,107.816 216.854,109.257 216.854,111.031C216.854,112.806 215.546,114.246 213.934,114.246C212.323,114.246 211.015,112.806 211.015,111.031C211.015,109.257 212.323,107.816 213.934,107.816Z" style="fill:white;"/>
            </g>
            <g>
                <g>
                    <path d="M169.886,83.449L68.678,83.449C68.678,83.449 65.409,87.721 63.054,90.798C61.937,92.258 62.244,93.984 62.244,93.984L176.331,94.684C176.331,93.808 176.561,92.652 175.303,90.798C173.334,87.895 169.886,83.449 169.886,83.449Z" style="fill:rgb(255,63,66);"/>
                    <path d="M176.331,93.126C176.331,92.159 175.546,91.373 174.579,91.373L64.012,91.373C63.044,91.373 62.259,92.159 62.259,93.126L62.259,148.047C62.259,149.015 63.044,149.8 64.012,149.8L174.579,149.8C175.546,149.8 176.331,149.015 176.331,148.047L176.331,93.126Z" style="fill:url(#_Linear16);"/>
                    <path d="M174.095,94.801C174.095,93.893 173.358,93.155 172.45,93.155L66.65,93.155C65.741,93.155 65.004,93.893 65.004,94.801L65.004,146.372C65.004,147.281 65.741,148.018 66.65,148.018L172.45,148.018C173.358,148.018 174.095,147.281 174.095,146.372L174.095,94.801Z" style="fill:rgb(235,52,49);"/>
                </g>
                <g id="command_it">
                    <g>
                        <path d="M159.27,83.535C159.991,83.501 160.734,83.482 161.493,83.482C164.812,83.482 167.826,83.831 170.044,84.396C170.159,84.426 170.383,84.487 170.383,84.487L173.176,87.796C173.176,87.796 172.984,87.939 172.874,88.008C171.013,89.188 166.616,90.018 161.493,90.018C160.734,90.018 159.991,89.999 159.27,89.965C165.015,89.687 169.377,88.352 169.377,86.75C169.377,85.148 165.015,83.813 159.27,83.535Z" style="fill:rgb(224,48,46);fill-opacity:0.713726;"/>
                        <path d="M157.047,83.482C162.881,83.482 169.377,80.723 169.377,80.723C169.377,80.723 169.377,86.493 169.377,86.75C169.377,88.553 163.852,90.018 157.047,90.018C150.242,90.018 144.716,88.553 144.716,86.75C144.716,86.506 144.716,80.723 144.716,80.723L157.047,83.482Z" style="fill:url(#_Linear17);"/>
                        <ellipse cx="157.047" cy="80.546" rx="12.33" ry="3.268" style="fill:rgb(255,88,86);"/>
                        <path d="M169.282,80.14C169.344,80.273 169.377,80.408 169.377,80.546C169.377,82.35 163.852,83.814 157.047,83.814C150.242,83.814 144.716,82.35 144.716,80.546C144.716,80.492 144.722,80.439 144.731,80.386C145.488,81.998 150.681,83.247 156.967,83.247C163.569,83.247 168.966,81.869 169.282,80.14Z" style="fill:url(#_Linear18);"/>
                    </g>
                    <g>
                        <path d="M121.454,83.535C122.175,83.501 122.918,83.482 123.677,83.482C129,83.482 133.539,84.378 135.265,85.631C135.275,85.639 135.296,85.654 135.296,85.654L135.991,86.92C135.991,86.92 135.987,86.938 135.985,86.947C135.6,88.659 130.232,90.018 123.677,90.018C122.918,90.018 122.175,89.999 121.454,89.965C127.2,89.687 131.561,88.352 131.561,86.75C131.561,85.148 127.2,83.813 121.454,83.535Z" style="fill:rgb(224,48,46);fill-opacity:0.713726;"/>
                        <path d="M119.231,83.482C125.065,83.482 131.561,80.723 131.561,80.723C131.561,80.723 131.561,86.493 131.561,86.75C131.561,88.553 126.036,90.018 119.231,90.018C112.426,90.018 106.901,88.553 106.901,86.75C106.901,86.506 106.901,80.723 106.901,80.723L119.231,83.482Z" style="fill:url(#_Linear19);"/>
                        <ellipse cx="119.231" cy="80.546" rx="12.33" ry="3.268" style="fill:rgb(255,88,86);"/>
                        <path d="M131.466,80.14C131.529,80.273 131.561,80.408 131.561,80.546C131.561,82.35 126.036,83.814 119.231,83.814C112.426,83.814 106.901,82.35 106.901,80.546C106.901,80.492 106.906,80.439 106.916,80.386C107.672,81.998 112.865,83.247 119.151,83.247C125.753,83.247 131.15,81.869 131.466,80.14Z" style="fill:url(#_Linear20);"/>
                    </g>
                    <g>
                        <path d="M83.638,83.28C84.36,83.245 85.103,83.226 85.861,83.226C91.184,83.226 95.724,84.122 97.449,85.375C97.459,85.383 97.48,85.398 97.48,85.398L98.175,86.664C98.175,86.664 98.171,86.682 98.169,86.692C97.784,88.403 92.417,89.762 85.861,89.762C85.103,89.762 84.36,89.744 83.638,89.709C89.384,89.431 93.745,88.097 93.745,86.494C93.745,84.892 89.384,83.557 83.638,83.28Z" style="fill:rgb(224,48,46);fill-opacity:0.713726;"/>
                        <path d="M81.415,83.226C87.249,83.226 93.745,80.467 93.745,80.467C93.745,80.467 93.745,86.237 93.745,86.494C93.745,88.298 88.22,89.762 81.415,89.762C74.61,89.762 69.085,88.298 69.085,86.494C69.085,86.25 69.085,80.467 69.085,80.467C69.085,80.467 75.531,83.226 81.415,83.226Z" style="fill:url(#_Linear21);"/>
                        <ellipse cx="81.415" cy="80.29" rx="12.33" ry="3.268" style="fill:rgb(255,88,86);"/>
                        <path d="M93.65,79.884C93.713,80.017 93.745,80.153 93.745,80.29C93.745,82.094 88.22,83.558 81.415,83.558C74.61,83.558 69.085,82.094 69.085,80.29C69.085,80.236 69.09,80.183 69.1,80.13C69.856,81.742 75.049,82.991 81.335,82.991C87.937,82.991 93.334,81.613 93.65,79.884Z" style="fill:url(#_Linear22);"/>
                    </g>
                    <g>
                        <path d="M71.795,129.396C72.954,129.396 73.922,129.721 74.696,130.372C75.471,131.022 75.956,131.908 76.151,133.029L73.729,133.029C73.632,132.535 73.409,132.146 73.063,131.86C72.716,131.574 72.277,131.431 71.746,131.431C71.139,131.431 70.633,131.663 70.226,132.129C69.82,132.594 69.617,133.275 69.617,134.172C69.617,135.069 69.82,135.75 70.226,136.215C70.633,136.681 71.139,136.913 71.746,136.913C72.277,136.913 72.716,136.771 73.063,136.485C73.409,136.199 73.632,135.809 73.729,135.316L76.151,135.316C75.956,136.437 75.471,137.323 74.696,137.973C73.922,138.623 72.954,138.948 71.795,138.948C70.917,138.948 70.137,138.755 69.454,138.368C68.772,137.981 68.241,137.429 67.861,136.712C67.482,135.994 67.293,135.148 67.293,134.172C67.293,133.197 67.482,132.348 67.861,131.625C68.241,130.901 68.772,130.349 69.454,129.968C70.137,129.587 70.917,129.396 71.795,129.396Z" style="fill:white;fill-rule:nonzero;"/>
                        <path d="M81.938,129.396C82.815,129.396 83.604,129.587 84.303,129.968C85.002,130.349 85.551,130.901 85.953,131.625C86.353,132.348 86.554,133.197 86.554,134.172C86.554,135.148 86.353,135.994 85.953,136.712C85.551,137.429 85.002,137.981 84.303,138.368C83.604,138.755 82.815,138.948 81.938,138.948C81.06,138.948 80.272,138.755 79.573,138.368C78.874,137.981 78.324,137.429 77.923,136.712C77.522,135.994 77.322,135.148 77.322,134.172C77.322,133.197 77.522,132.348 77.923,131.625C78.324,130.901 78.874,130.349 79.573,129.968C80.272,129.587 81.06,129.396 81.938,129.396ZM81.938,131.448C81.299,131.448 80.757,131.681 80.312,132.146C79.868,132.611 79.646,133.287 79.646,134.172C79.646,135.058 79.868,135.733 80.312,136.199C80.757,136.664 81.299,136.897 81.938,136.897C82.577,136.897 83.119,136.664 83.563,136.199C84.008,135.733 84.229,135.058 84.229,134.172C84.229,133.287 84.008,132.611 83.563,132.146C83.119,131.681 82.577,131.448 81.938,131.448Z" style="fill:white;fill-rule:nonzero;"/>
                        <path d="M99.639,129.379C100.733,129.379 101.597,129.73 102.231,130.43C102.865,131.131 103.182,132.126 103.182,133.416L103.182,138.831L100.907,138.831L100.907,133.684C100.907,132.967 100.73,132.415 100.378,132.028C100.026,131.641 99.541,131.448 98.923,131.448C98.284,131.448 97.775,131.655 97.396,132.07C97.016,132.485 96.827,133.09 96.827,133.886L96.827,138.831L94.551,138.831L94.551,133.684C94.551,132.967 94.375,132.415 94.023,132.028C93.67,131.641 93.186,131.448 92.568,131.448C91.929,131.448 91.419,131.655 91.04,132.07C90.661,132.485 90.471,133.09 90.471,133.886L90.471,138.831L88.179,138.831L88.179,129.514L90.471,129.514L90.471,131.279C90.71,130.674 91.086,130.206 91.601,129.875C92.116,129.545 92.714,129.379 93.397,129.379C94.123,129.379 94.754,129.559 95.291,129.917C95.827,130.276 96.231,130.792 96.502,131.465C96.784,130.826 97.203,130.318 97.761,129.943C98.32,129.567 98.945,129.379 99.639,129.379Z" style="fill:white;fill-rule:nonzero;"/>
                        <path d="M116.657,129.379C117.751,129.379 118.616,129.73 119.25,130.43C119.883,131.131 120.2,132.126 120.2,133.416L120.2,138.831L117.925,138.831L117.925,133.684C117.925,132.967 117.749,132.415 117.397,132.028C117.045,131.641 116.56,131.448 115.942,131.448C115.303,131.448 114.793,131.655 114.414,132.07C114.035,132.485 113.845,133.09 113.845,133.886L113.845,138.831L111.569,138.831L111.569,133.684C111.569,132.967 111.393,132.415 111.041,132.028C110.689,131.641 110.204,131.448 109.586,131.448C108.947,131.448 108.438,131.655 108.058,132.07C107.679,132.485 107.49,133.09 107.49,133.886L107.49,138.831L105.198,138.831L105.198,129.514L107.49,129.514L107.49,131.279C107.728,130.674 108.104,130.206 108.619,129.875C109.134,129.545 109.733,129.379 110.416,129.379C111.141,129.379 111.773,129.559 112.309,129.917C112.845,130.276 113.249,130.792 113.52,131.465C113.802,130.826 114.222,130.318 114.78,129.943C115.338,129.567 115.963,129.379 116.657,129.379Z" style="fill:white;fill-rule:nonzero;"/>
                        <path d="M125.743,129.396C126.502,129.396 127.152,129.581 127.694,129.951C128.236,130.321 128.62,130.82 128.848,131.448L128.848,129.514L131.123,129.514L131.123,138.831L128.848,138.831L128.848,136.88C128.62,137.508 128.236,138.009 127.694,138.385C127.152,138.761 126.502,138.948 125.743,138.948C124.985,138.948 124.302,138.758 123.695,138.377C123.088,137.996 122.614,137.443 122.273,136.72C121.932,135.997 121.761,135.148 121.761,134.172C121.761,133.197 121.932,132.348 122.273,131.625C122.614,130.901 123.088,130.349 123.695,129.968C124.302,129.587 124.985,129.396 125.743,129.396ZM126.458,131.465C125.743,131.465 125.169,131.706 124.736,132.188C124.302,132.67 124.085,133.331 124.085,134.172C124.085,135.013 124.302,135.672 124.736,136.148C125.169,136.625 125.743,136.863 126.458,136.863C127.152,136.863 127.723,136.619 128.173,136.132C128.623,135.644 128.848,134.991 128.848,134.172C128.848,133.343 128.623,132.684 128.173,132.196C127.723,131.708 127.152,131.465 126.458,131.465Z" style="fill:white;fill-rule:nonzero;"/>
                        <path d="M138.568,129.379C139.608,129.379 140.437,129.733 141.055,130.439C141.672,131.145 141.982,132.137 141.982,133.416L141.982,138.831L139.706,138.831L139.706,133.684C139.706,132.944 139.522,132.37 139.153,131.961C138.785,131.552 138.281,131.347 137.641,131.347C136.991,131.347 136.471,131.565 136.081,132.003C135.691,132.44 135.496,133.068 135.496,133.886L135.496,138.831L133.204,138.831L133.204,129.514L135.496,129.514L135.496,131.38C135.734,130.753 136.127,130.262 136.674,129.909C137.221,129.556 137.853,129.379 138.568,129.379Z" style="fill:white;fill-rule:nonzero;"/>
                        <path d="M147.524,129.396C148.283,129.396 148.93,129.581 149.467,129.951C150.003,130.321 150.39,130.82 150.629,131.448L150.629,126.386L152.904,126.386L152.904,138.831L150.629,138.831L150.629,136.88C150.39,137.508 150.003,138.009 149.467,138.385C148.93,138.761 148.283,138.948 147.524,138.948C146.765,138.948 146.083,138.758 145.476,138.377C144.869,137.996 144.395,137.443 144.054,136.72C143.712,135.997 143.542,135.148 143.542,134.172C143.542,133.197 143.712,132.348 144.054,131.625C144.395,130.901 144.869,130.349 145.476,129.968C146.083,129.587 146.765,129.396 147.524,129.396ZM148.239,131.465C147.524,131.465 146.95,131.706 146.516,132.188C146.083,132.67 145.866,133.331 145.866,134.172C145.866,135.013 146.083,135.672 146.516,136.148C146.95,136.625 147.524,136.863 148.239,136.863C148.933,136.863 149.505,136.619 149.954,136.132C150.404,135.644 150.629,134.991 150.629,134.172C150.629,133.343 150.404,132.684 149.954,132.196C149.505,131.708 148.933,131.465 148.239,131.465Z" style="fill:white;fill-rule:nonzero;"/>
                        <path d="M161.812,126.84C161.812,126.459 161.942,126.148 162.202,125.906C162.462,125.666 162.803,125.545 163.226,125.545C163.648,125.545 163.99,125.666 164.25,125.906C164.51,126.148 164.64,126.459 164.64,126.84C164.64,127.21 164.51,127.515 164.25,127.756C163.99,127.998 163.648,128.118 163.226,128.118C162.803,128.118 162.462,127.998 162.202,127.756C161.942,127.515 161.812,127.21 161.812,126.84ZM164.364,129.514L164.364,138.831L162.072,138.831L162.072,129.514L164.364,129.514Z" style="fill:white;fill-rule:nonzero;"/>
                        <path d="M171.256,136.796L171.256,138.831L170.053,138.831C169.045,138.831 168.273,138.579 167.736,138.074C167.2,137.569 166.932,136.728 166.932,135.551L166.932,131.515L165.68,131.515L165.68,129.514L166.932,129.514L166.932,127.21L169.224,127.21L169.224,129.514L171.239,129.514L171.239,131.515L169.224,131.515L169.224,135.585C169.224,136.033 169.31,136.347 169.484,136.527C169.657,136.706 169.95,136.796 170.362,136.796L171.256,136.796Z" style="fill:white;fill-rule:nonzero;"/>
                    </g>
                    <path d="M128.972,106.403C129.886,106.428 130.033,106.875 129.313,107.799L115.894,122.764C115.485,123.22 114.335,123.463 114.564,122.764C114.564,122.764 117.298,114.418 117.802,113.148C117.878,112.87 117.863,112.686 117.496,112.682C117.488,112.68 110.669,112.682 109.384,112.682C108.48,112.598 108.681,112.048 109.384,111.286L122.512,97.35C123.162,96.659 123.851,97.192 123.636,97.879L121.004,106.07C120.973,106.224 120.903,106.398 121.151,106.403L128.972,106.403Z" style="fill:white;fill-rule:nonzero;"/>
                    <rect x="155.132" y="138.948" width="4.982" height="1.557" style="fill:white;"/>
                </g>
            </g>
            <g>
                <path d="M209.323,23.995L105.066,23.995C105.066,23.995 102.363,28.047 100.605,30.682C99.425,32.451 99.674,34.632 99.674,34.632L214.914,34.632C214.914,33.354 214.911,33.169 213.786,31.249C211.948,28.11 209.323,23.995 209.323,23.995Z" style="fill:url(#_Linear23);"/>
                <g>
                    <path d="M199.982,23.941C203.97,23.941 210.152,28.924 210.152,28.924C210.152,28.924 206.128,30.448 199.982,30.448C199.213,30.448 198.46,30.429 197.728,30.395C203.553,30.118 207.975,28.79 207.975,27.195C207.975,25.599 203.553,24.271 197.728,23.994C198.46,23.959 199.213,23.941 199.982,23.941Z" style="fill:rgb(0,108,194);fill-opacity:0.713726;"/>
                    <path d="M195.474,23.941C201.389,23.941 207.975,21.194 207.975,21.194C207.975,21.194 207.975,26.938 207.975,27.195C207.975,28.99 202.374,30.448 195.474,30.448C188.575,30.448 182.974,28.99 182.974,27.195C182.974,26.951 182.974,21.194 182.974,21.194L195.474,23.941Z" style="fill:url(#_Linear24);"/>
                    <ellipse cx="195.474" cy="21.018" rx="12.5" ry="3.253" style="fill:rgb(24,144,228);"/>
                    <path d="M207.879,20.613C207.942,20.746 207.975,20.881 207.975,21.018C207.975,22.814 202.374,24.272 195.474,24.272C188.575,24.272 182.974,22.814 182.974,21.018C182.974,20.965 182.979,20.911 182.989,20.859C183.756,22.463 189.021,23.707 195.393,23.707C202.086,23.707 207.558,22.335 207.879,20.613Z" style="fill:url(#_Linear25);"/>
                </g>
                <g>
                    <path d="M171.035,25.186C173.217,25.975 173.909,26.804 173.722,27.658C173.722,27.658 173.676,27.733 173.649,27.769C172.535,29.291 167.103,30.448 160.958,30.448C160.188,30.448 159.434,30.429 158.703,30.395C164.529,30.118 168.95,28.79 168.95,27.195C168.95,25.599 164.529,24.271 158.703,23.994C159.434,23.959 160.188,23.941 160.958,23.941C164.945,23.941 168.633,24.428 171.035,25.186Z" style="fill:rgb(0,108,194);fill-opacity:0.713726;"/>
                    <path d="M156.45,23.941C162.364,23.941 168.95,21.194 168.95,21.194C168.95,21.194 168.95,26.938 168.95,27.195C168.95,28.99 163.349,30.448 156.45,30.448C149.55,30.448 143.949,28.99 143.949,27.195C143.949,26.951 143.949,21.194 143.949,21.194L156.45,23.941Z" style="fill:url(#_Linear26);"/>
                    <ellipse cx="156.45" cy="21.018" rx="12.5" ry="3.253" style="fill:rgb(24,144,228);"/>
                    <path d="M168.854,20.613C168.917,20.746 168.95,20.881 168.95,21.018C168.95,22.814 163.349,24.272 156.45,24.272C149.55,24.272 143.949,22.814 143.949,21.018C143.949,20.965 143.954,20.911 143.964,20.859C144.731,22.463 149.996,23.707 156.368,23.707C163.062,23.707 168.534,22.335 168.854,20.613Z" style="fill:url(#_Linear27);"/>
                </g>
                <g>
                    <path d="M133.754,25.186C135.867,25.981 136.398,26.814 136.441,27.658C136.441,27.658 136.395,27.733 136.368,27.769C135.254,29.291 129.822,30.448 123.676,30.448C122.907,30.448 122.153,30.429 121.422,30.395C127.247,30.118 131.669,28.79 131.669,27.195C131.669,25.599 127.247,24.271 121.422,23.994C122.153,23.959 122.907,23.941 123.676,23.941C127.664,23.941 131.352,24.428 133.754,25.186Z" style="fill:rgb(0,108,194);fill-opacity:0.713726;"/>
                    <path d="M119.168,23.941C125.083,23.941 131.669,21.194 131.669,21.194C131.669,21.194 131.669,26.938 131.669,27.195C131.669,28.99 126.067,30.448 119.168,30.448C112.269,30.448 106.668,28.99 106.668,27.195C106.668,26.951 106.668,21.194 106.668,21.194L119.168,23.941Z" style="fill:url(#_Linear28);"/>
                    <ellipse cx="119.168" cy="21.018" rx="12.5" ry="3.253" style="fill:rgb(24,144,228);"/>
                    <path d="M131.573,20.613C131.636,20.746 131.669,20.881 131.669,21.018C131.669,22.814 126.067,24.272 119.168,24.272C112.269,24.272 106.668,22.814 106.668,21.018C106.668,20.965 106.673,20.911 106.683,20.859C107.449,22.463 112.715,23.707 119.087,23.707C125.781,23.707 131.252,22.335 131.573,20.613Z" style="fill:url(#_Linear29);"/>
                </g>
                <path d="M214.896,33.765C214.896,32.788 214.103,31.996 213.126,31.996L101.424,31.996C100.447,31.996 99.654,32.788 99.654,33.765L99.654,89.216C99.654,90.192 100.447,90.985 101.424,90.985L213.126,90.985C214.103,90.985 214.896,90.192 214.896,89.216L214.896,33.765Z" style="fill:url(#_Linear30);"/>
                <path d="M212.952,35.84C212.952,34.929 212.212,34.19 211.302,34.19L102.816,34.19C101.905,34.19 101.166,34.929 101.166,35.84L101.166,87.536C101.166,88.447 101.905,89.186 102.816,89.186L211.302,89.186C212.212,89.186 212.952,88.447 212.952,87.536L212.952,35.84Z" style="fill:url(#_Linear31);"/>
                <g>
                    <g>
                        <path d="M150.944,57.154C150.245,57.531 149.643,57.586 149.179,57.169C149.179,57.169 147.186,55.57 146.19,54.772C144.856,53.704 142.189,51.572 142.189,51.572C141.643,51.063 141.575,50.607 142.18,50.225C142.18,50.225 145.344,48.625 146.934,47.844C147.123,47.751 147.408,47.73 147.594,47.816C150.023,48.93 152.442,50.069 154.862,51.204C155.375,51.444 155.906,51.643 156.396,51.931C156.787,52.163 156.916,52.299 157.043,52.593L157.567,53.814C157.567,53.814 157.155,54.024 157.004,54.1C154.983,55.116 150.944,57.154 150.944,57.154Z" style="fill:white;fill-rule:nonzero;"/>
                        <path d="M153.316,60.51C152.87,60.234 152.837,59.901 153.017,59.54L155.013,55.102C155.013,55.102 156.34,54.433 157.004,54.1C157.155,54.024 157.57,53.82 157.57,53.82L155.665,62.361L153.316,60.51Z" style="fill:rgb(45,198,255);fill-rule:nonzero;"/>
                        <path d="M155.665,62.36L157.57,53.82C157.57,53.82 158.737,56.658 159.29,57.911C159.443,58.256 159.428,58.552 159.374,58.943C159.17,60.407 158.645,64.178 158.645,64.178C158.599,64.51 158.46,64.618 158.183,64.387L155.665,62.36Z" style="fill:rgb(45,198,255);fill-rule:nonzero;"/>
                    </g>
                    <g>
                        <path d="M165.11,50.012C165.826,49.677 166.253,49.212 166.257,48.56C166.257,48.56 166.411,45.879 166.489,44.538C166.593,42.747 166.804,39.163 166.804,39.163C166.796,38.383 166.518,38.032 165.859,38.288C165.859,38.288 162.691,39.88 161.116,40.694C160.929,40.791 160.73,41.014 160.671,41.223C159.894,43.954 159.141,46.692 158.384,49.429C158.224,50.008 158.021,50.576 157.911,51.168C157.822,51.64 157.834,51.836 157.961,52.129L158.486,53.351C158.486,53.351 158.9,53.144 159.05,53.068C161.069,52.048 165.11,50.012 165.11,50.012Z" style="fill:white;fill-rule:nonzero;"/>
                        <path d="M165.953,54.14C166.045,53.592 165.831,53.351 165.461,53.267L161.04,52.063C161.04,52.063 159.714,52.733 159.05,53.068C158.9,53.144 158.488,53.357 158.488,53.357L165.748,57.278L165.953,54.14Z" style="fill:rgb(45,198,255);fill-rule:nonzero;"/>
                        <path d="M165.747,57.277L158.488,53.357C158.488,53.357 159.742,56.152 160.27,57.417C160.416,57.766 160.634,57.944 160.945,58.151C162.111,58.925 165.112,60.917 165.112,60.917C165.377,61.093 165.542,61.048 165.558,60.669L165.747,57.277Z" style="fill:rgb(45,198,255);fill-rule:nonzero;"/>
                    </g>
                </g>
                <rect x="184.071" y="82.853" width="7.61" height="2.459" style="fill:white;"/>
                <g>
                    <path d="M113.917,66.297C112.955,66.229 112.28,66.381 111.893,66.75C111.505,67.12 111.311,67.767 111.311,68.691L111.311,68.716L113.917,68.716L113.917,71.715L111.311,71.715L111.311,82.677L108.031,82.677L108.031,71.715L106.379,71.715L106.379,68.716L108.031,68.716L108.031,68.388C108.031,66.725 108.469,65.444 109.345,64.545C110.221,63.646 111.52,63.197 113.242,63.197C113.537,63.197 113.761,63.205 113.917,63.222L113.917,66.297Z" style="fill:white;fill-rule:nonzero;"/>
                    <rect x="116.36" y="64.029" width="3.28" height="18.648" style="fill:white;"/>
                    <path d="M135.437,68.716L135.437,82.677L132.157,82.677L132.157,79.855C131.815,80.795 131.253,81.53 130.47,82.059C129.687,82.589 128.783,82.853 127.76,82.853C126.27,82.853 125.084,82.324 124.2,81.266C123.316,80.207 122.874,78.729 122.874,76.831L122.874,68.716L126.131,68.716L126.131,76.427C126.131,77.536 126.395,78.397 126.922,79.01C127.449,79.624 128.163,79.93 129.063,79.93C130.008,79.93 130.761,79.603 131.319,78.947C131.878,78.292 132.157,77.351 132.157,76.125L132.157,68.716L135.437,68.716Z" style="fill:white;fill-rule:nonzero;"/>
                    <path d="M145.79,79.627L145.79,82.677L144.068,82.677C142.626,82.677 141.521,82.299 140.753,81.543C139.985,80.787 139.602,79.527 139.602,77.763L139.602,71.715L137.81,71.715L137.81,68.716L139.602,68.716L139.602,65.263L142.882,65.263L142.882,68.716L145.767,68.716L145.767,71.715L142.882,71.715L142.882,77.813C142.882,78.485 143.006,78.956 143.254,79.224C143.502,79.493 143.921,79.627 144.511,79.627L145.79,79.627Z" style="fill:white;fill-rule:nonzero;"/>
                    <path d="M155.515,79.627L155.515,82.677L153.793,82.677C152.351,82.677 151.246,82.299 150.478,81.543C149.71,80.787 149.327,79.527 149.327,77.763L149.327,71.715L147.535,71.715L147.535,68.716L149.327,68.716L149.327,65.263L152.607,65.263L152.607,68.716L155.492,68.716L155.492,71.715L152.607,71.715L152.607,77.813C152.607,78.485 152.731,78.956 152.979,79.224C153.227,79.493 153.646,79.627 154.236,79.627L155.515,79.627Z" style="fill:white;fill-rule:nonzero;"/>
                    <path d="M170.474,75.167C170.474,75.52 170.436,75.923 170.358,76.377L160.913,76.377C160.959,77.62 161.269,78.536 161.843,79.123C162.417,79.712 163.13,80.006 163.984,80.006C164.744,80.006 165.376,79.804 165.88,79.401C166.384,78.998 166.706,78.452 166.845,77.763L170.312,77.763C170.141,78.737 169.777,79.611 169.218,80.383C168.66,81.156 167.942,81.761 167.066,82.198C166.19,82.635 165.217,82.853 164.146,82.853C162.89,82.853 161.773,82.563 160.796,81.984C159.819,81.404 159.059,80.577 158.516,79.502C157.974,78.426 157.702,77.158 157.702,75.696C157.702,74.235 157.974,72.962 158.516,71.879C159.059,70.795 159.819,69.967 160.796,69.396C161.773,68.825 162.89,68.539 164.146,68.539C165.418,68.539 166.531,68.825 167.485,69.396C168.439,69.967 169.176,70.753 169.695,71.752C170.215,72.752 170.474,73.89 170.474,75.167ZM167.171,74.815C167.217,73.672 166.942,72.807 166.345,72.219C165.748,71.631 165.015,71.337 164.146,71.337C163.263,71.337 162.518,71.631 161.913,72.219C161.308,72.807 160.975,73.672 160.913,74.815L167.171,74.815Z" style="fill:white;fill-rule:nonzero;"/>
                    <path d="M176.57,71.387C177.051,70.497 177.687,69.795 178.478,69.283C179.269,68.77 180.153,68.514 181.13,68.514L181.13,72.319L180.176,72.319C177.772,72.319 176.57,73.529 176.57,75.948L176.57,82.677L173.29,82.677L173.29,68.716L176.57,68.716L176.57,71.387Z" style="fill:white;fill-rule:nonzero;"/>
                    <path d="M194.182,64.709C194.182,64.138 194.368,63.672 194.74,63.311C195.112,62.949 195.601,62.769 196.206,62.769C196.811,62.769 197.299,62.949 197.672,63.311C198.044,63.672 198.23,64.138 198.23,64.709C198.23,65.263 198.044,65.721 197.672,66.083C197.299,66.444 196.811,66.624 196.206,66.624C195.601,66.624 195.112,66.444 194.74,66.083C194.368,65.721 194.182,65.263 194.182,64.709ZM197.835,68.716L197.835,82.677L194.554,82.677L194.554,68.716L197.835,68.716Z" style="fill:white;fill-rule:nonzero;"/>
                    <path d="M208.188,79.627L208.188,82.677L206.466,82.677C205.023,82.677 203.918,82.299 203.151,81.543C202.383,80.787 201.999,79.527 201.999,77.763L201.999,71.715L200.207,71.715L200.207,68.716L201.999,68.716L201.999,65.263L205.28,65.263L205.28,68.716L208.165,68.716L208.165,71.715L205.28,71.715L205.28,77.813C205.28,78.485 205.404,78.956 205.652,79.224C205.9,79.493 206.319,79.627 206.908,79.627L208.188,79.627Z" style="fill:white;fill-rule:nonzero;"/>
                </g>
            </g>
        </g>
    </g>
    <defs>
        <linearGradient id="_Linear1" x1="0" y1="0" x2="1" y2="0" gradientUnits="userSpaceOnUse" gradientTransform="matrix(144.376,-51.457,51.457,144.376,26.1658,211.193)"><stop offset="0" style="stop-color:rgb(214,91,253);stop-opacity:1"/><stop offset="0.22" style="stop-color:rgb(106,27,156);stop-opacity:1"/><stop offset="0.55" style="stop-color:rgb(229,95,255);stop-opacity:1"/><stop offset="0.69" style="stop-color:rgb(107,27,157);stop-opacity:1"/><stop offset="0.8" style="stop-color:rgb(197,73,228);stop-opacity:1"/><stop offset="1" style="stop-color:rgb(107,27,157);stop-opacity:1"/></linearGradient>
        <linearGradient id="_Linear2" x1="0" y1="0" x2="1" y2="0" gradientUnits="userSpaceOnUse" gradientTransform="matrix(24.4376,0,0,24.4376,69.7184,144.122)"><stop offset="0" style="stop-color:rgb(214,133,253);stop-opacity:1"/><stop offset="0.22" style="stop-color:rgb(106,27,156);stop-opacity:1"/><stop offset="0.55" style="stop-color:rgb(229,138,255);stop-opacity:1"/><stop offset="0.69" style="stop-color:rgb(107,27,157);stop-opacity:1"/><stop offset="0.8" style="stop-color:rgb(197,104,228);stop-opacity:1"/><stop offset="1" style="stop-color:rgb(107,27,157);stop-opacity:1"/></linearGradient>
        <linearGradient id="_Linear3" x1="0" y1="0" x2="1" y2="0" gradientUnits="userSpaceOnUse" gradientTransform="matrix(44.7951,-20.384,20.384,44.7951,56.7882,151.774)"><stop offset="0" style="stop-color:rgb(214,133,253);stop-opacity:1"/><stop offset="0.22" style="stop-color:rgb(106,27,156);stop-opacity:1"/><stop offset="0.55" style="stop-color:rgb(229,138,255);stop-opacity:1"/><stop offset="0.69" style="stop-color:rgb(107,27,157);stop-opacity:1"/><stop offset="0.8" style="stop-color:rgb(197,104,228);stop-opacity:1"/><stop offset="1" style="stop-color:rgb(107,27,157);stop-opacity:1"/></linearGradient>
        <linearGradient id="_Linear4" x1="0" y1="0" x2="1" y2="0" gradientUnits="userSpaceOnUse" gradientTransform="matrix(24.4376,0,0,24.4376,105.274,144.288)"><stop offset="0" style="stop-color:rgb(214,133,253);stop-opacity:1"/><stop offset="0.22" style="stop-color:rgb(106,27,156);stop-opacity:1"/><stop offset="0.55" style="stop-color:rgb(229,138,255);stop-opacity:1"/><stop offset="0.69" style="stop-color:rgb(107,27,157);stop-opacity:1"/><stop offset="0.8" style="stop-color:rgb(197,104,228);stop-opacity:1"/><stop offset="1" style="stop-color:rgb(107,27,157);stop-opacity:1"/></linearGradient>
        <linearGradient id="_Linear5" x1="0" y1="0" x2="1" y2="0" gradientUnits="userSpaceOnUse" gradientTransform="matrix(34.0748,-14.3734,14.3734,34.0748,100.979,151.68)"><stop offset="0" style="stop-color:rgb(214,133,253);stop-opacity:1"/><stop offset="0.22" style="stop-color:rgb(106,27,156);stop-opacity:1"/><stop offset="0.55" style="stop-color:rgb(229,138,255);stop-opacity:1"/><stop offset="0.69" style="stop-color:rgb(107,27,157);stop-opacity:1"/><stop offset="0.8" style="stop-color:rgb(197,104,228);stop-opacity:1"/><stop offset="1" style="stop-color:rgb(107,27,157);stop-opacity:1"/></linearGradient>
        <linearGradient id="_Linear6" x1="0" y1="0" x2="1" y2="0" gradientUnits="userSpaceOnUse" gradientTransform="matrix(96.1166,-29.0916,29.0916,96.1166,126.396,190.394)"><stop offset="0" style="stop-color:rgb(254,204,93);stop-opacity:1"/><stop offset="0.22" style="stop-color:rgb(242,170,38);stop-opacity:1"/><stop offset="0.55" style="stop-color:rgb(254,200,90);stop-opacity:1"/><stop offset="0.69" style="stop-color:rgb(220,159,37);stop-opacity:1"/><stop offset="0.8" style="stop-color:rgb(204,141,13);stop-opacity:1"/><stop offset="1" style="stop-color:rgb(244,173,36);stop-opacity:1"/></linearGradient>
        <linearGradient id="_Linear7" x1="0" y1="0" x2="1" y2="0" gradientUnits="userSpaceOnUse" gradientTransform="matrix(31.7377,0,0,31.7377,172.284,143.791)"><stop offset="0" style="stop-color:rgb(254,204,93);stop-opacity:1"/><stop offset="0.22" style="stop-color:rgb(242,170,38);stop-opacity:1"/><stop offset="0.55" style="stop-color:rgb(254,200,90);stop-opacity:1"/><stop offset="0.69" style="stop-color:rgb(220,159,37);stop-opacity:1"/><stop offset="0.8" style="stop-color:rgb(204,141,13);stop-opacity:1"/><stop offset="1" style="stop-color:rgb(244,173,36);stop-opacity:1"/></linearGradient>
        <linearGradient id="_Linear8" x1="0" y1="0" x2="1" y2="0" gradientUnits="userSpaceOnUse" gradientTransform="matrix(42.8103,1.15086,-1.15086,42.8103,161.211,139.167)"><stop offset="0" style="stop-color:rgb(254,204,93);stop-opacity:1"/><stop offset="0.22" style="stop-color:rgb(242,170,38);stop-opacity:1"/><stop offset="0.55" style="stop-color:rgb(254,200,90);stop-opacity:1"/><stop offset="0.69" style="stop-color:rgb(220,159,37);stop-opacity:1"/><stop offset="0.8" style="stop-color:rgb(204,141,13);stop-opacity:1"/><stop offset="1" style="stop-color:rgb(244,173,36);stop-opacity:1"/></linearGradient>
        <linearGradient id="_Linear9" x1="0" y1="0" x2="1" y2="0" gradientUnits="userSpaceOnUse" gradientTransform="matrix(31.7377,0,0,31.7377,137.018,143.791)"><stop offset="0" style="stop-color:rgb(254,204,93);stop-opacity:1"/><stop offset="0.22" style="stop-color:rgb(242,170,38);stop-opacity:1"/><stop offset="0.55" style="stop-color:rgb(254,200,90);stop-opacity:1"/><stop offset="0.69" style="stop-color:rgb(220,159,37);stop-opacity:1"/><stop offset="0.8" style="stop-color:rgb(204,141,13);stop-opacity:1"/><stop offset="1" style="stop-color:rgb(244,173,36);stop-opacity:1"/></linearGradient>
        <linearGradient id="_Linear10" x1="0" y1="0" x2="1" y2="0" gradientUnits="userSpaceOnUse" gradientTransform="matrix(42.8103,1.15086,-1.15086,42.8103,125.945,139.167)"><stop offset="0" style="stop-color:rgb(254,204,93);stop-opacity:1"/><stop offset="0.22" style="stop-color:rgb(242,170,38);stop-opacity:1"/><stop offset="0.55" style="stop-color:rgb(254,200,90);stop-opacity:1"/><stop offset="0.69" style="stop-color:rgb(220,159,37);stop-opacity:1"/><stop offset="0.8" style="stop-color:rgb(204,141,13);stop-opacity:1"/><stop offset="1" style="stop-color:rgb(244,173,36);stop-opacity:1"/></linearGradient>
        <linearGradient id="_Linear11" x1="0" y1="0" x2="1" y2="0" gradientUnits="userSpaceOnUse" gradientTransform="matrix(97.3878,-29.0287,29.0287,97.3878,165.593,131.703)"><stop offset="0" style="stop-color:rgb(85,189,109);stop-opacity:1"/><stop offset="0.22" style="stop-color:rgb(27,136,61);stop-opacity:1"/><stop offset="0.55" style="stop-color:rgb(83,187,107);stop-opacity:1"/><stop offset="0.69" style="stop-color:rgb(51,164,87);stop-opacity:1"/><stop offset="0.8" style="stop-color:rgb(37,154,78);stop-opacity:1"/><stop offset="1" style="stop-color:rgb(84,188,108);stop-opacity:1"/></linearGradient>
        <linearGradient id="_Linear12" x1="0" y1="0" x2="1" y2="0" gradientUnits="userSpaceOnUse" gradientTransform="matrix(24.7264,0,0,24.7264,219.964,85.3687)"><stop offset="0" style="stop-color:rgb(26,135,60);stop-opacity:1"/><stop offset="0.24" style="stop-color:rgb(84,188,108);stop-opacity:1"/><stop offset="0.49" style="stop-color:rgb(17,114,51);stop-opacity:1"/><stop offset="0.67" style="stop-color:rgb(84,188,108);stop-opacity:1"/><stop offset="0.8" style="stop-color:rgb(17,114,51);stop-opacity:1"/><stop offset="1" style="stop-color:rgb(84,188,108);stop-opacity:1"/></linearGradient>
        <linearGradient id="_Linear13" x1="0" y1="0" x2="1" y2="0" gradientUnits="userSpaceOnUse" gradientTransform="matrix(24.7263,0,0,24.7263,219.964,82.0346)"><stop offset="0" style="stop-color:rgb(37,154,78);stop-opacity:1"/><stop offset="0.29" style="stop-color:rgb(83,187,107);stop-opacity:1"/><stop offset="0.53" style="stop-color:rgb(37,154,78);stop-opacity:1"/><stop offset="0.73" style="stop-color:rgb(84,188,108);stop-opacity:1"/><stop offset="1" style="stop-color:rgb(27,136,61);stop-opacity:1"/></linearGradient>
        <linearGradient id="_Linear14" x1="0" y1="0" x2="1" y2="0" gradientUnits="userSpaceOnUse" gradientTransform="matrix(24.7264,0,0,24.7264,183.306,85.0327)"><stop offset="0" style="stop-color:rgb(26,135,60);stop-opacity:1"/><stop offset="0.24" style="stop-color:rgb(84,188,108);stop-opacity:1"/><stop offset="0.49" style="stop-color:rgb(17,114,51);stop-opacity:1"/><stop offset="0.67" style="stop-color:rgb(84,188,108);stop-opacity:1"/><stop offset="0.8" style="stop-color:rgb(17,114,51);stop-opacity:1"/><stop offset="1" style="stop-color:rgb(84,188,108);stop-opacity:1"/></linearGradient>
        <linearGradient id="_Linear15" x1="0" y1="0" x2="1" y2="0" gradientUnits="userSpaceOnUse" gradientTransform="matrix(24.7263,0,0,24.7263,183.306,81.6987)"><stop offset="0" style="stop-color:rgb(37,154,78);stop-opacity:1"/><stop offset="0.29" style="stop-color:rgb(83,187,107);stop-opacity:1"/><stop offset="0.53" style="stop-color:rgb(37,154,78);stop-opacity:1"/><stop offset="0.73" style="stop-color:rgb(84,188,108);stop-opacity:1"/><stop offset="1" style="stop-color:rgb(27,136,61);stop-opacity:1"/></linearGradient>
        <linearGradient id="_Linear16" x1="0" y1="0" x2="1" y2="0" gradientUnits="userSpaceOnUse" gradientTransform="matrix(147.641,-29.0314,29.0314,147.641,46.0411,131.444)"><stop offset="0" style="stop-color:rgb(255,125,116);stop-opacity:1"/><stop offset="0.22" style="stop-color:rgb(216,43,18);stop-opacity:1"/><stop offset="0.55" style="stop-color:rgb(255,126,115);stop-opacity:1"/><stop offset="0.69" style="stop-color:rgb(230,69,50);stop-opacity:1"/><stop offset="0.8" style="stop-color:rgb(219,43,20);stop-opacity:1"/><stop offset="1" style="stop-color:rgb(255,123,118);stop-opacity:1"/></linearGradient>
        <linearGradient id="_Linear17" x1="0" y1="0" x2="1" y2="0" gradientUnits="userSpaceOnUse" gradientTransform="matrix(24.66,0,0,24.66,144.716,85.3704)"><stop offset="0" style="stop-color:rgb(255,125,116);stop-opacity:1"/><stop offset="0.22" style="stop-color:rgb(216,43,18);stop-opacity:1"/><stop offset="0.55" style="stop-color:rgb(255,126,115);stop-opacity:1"/><stop offset="0.69" style="stop-color:rgb(230,69,50);stop-opacity:1"/><stop offset="0.8" style="stop-color:rgb(219,43,20);stop-opacity:1"/><stop offset="1" style="stop-color:rgb(255,123,118);stop-opacity:1"/></linearGradient>
        <linearGradient id="_Linear18" x1="0" y1="0" x2="1" y2="0" gradientUnits="userSpaceOnUse" gradientTransform="matrix(36.4079,-1.83724,1.83724,36.4079,132.969,83.8139)"><stop offset="0" style="stop-color:rgb(255,125,116);stop-opacity:1"/><stop offset="0.22" style="stop-color:rgb(216,43,18);stop-opacity:1"/><stop offset="0.55" style="stop-color:rgb(255,126,115);stop-opacity:1"/><stop offset="0.69" style="stop-color:rgb(230,69,50);stop-opacity:1"/><stop offset="0.8" style="stop-color:rgb(219,43,20);stop-opacity:1"/><stop offset="1" style="stop-color:rgb(255,123,118);stop-opacity:1"/></linearGradient>
        <linearGradient id="_Linear19" x1="0" y1="0" x2="1" y2="0" gradientUnits="userSpaceOnUse" gradientTransform="matrix(24.66,0,0,24.66,106.901,85.3704)"><stop offset="0" style="stop-color:rgb(255,125,116);stop-opacity:1"/><stop offset="0.22" style="stop-color:rgb(216,43,18);stop-opacity:1"/><stop offset="0.55" style="stop-color:rgb(255,126,115);stop-opacity:1"/><stop offset="0.69" style="stop-color:rgb(230,69,50);stop-opacity:1"/><stop offset="0.8" style="stop-color:rgb(219,43,20);stop-opacity:1"/><stop offset="1" style="stop-color:rgb(255,123,118);stop-opacity:1"/></linearGradient>
        <linearGradient id="_Linear20" x1="0" y1="0" x2="1" y2="0" gradientUnits="userSpaceOnUse" gradientTransform="matrix(36.4079,-1.83724,1.83724,36.4079,95.153,83.8139)"><stop offset="0" style="stop-color:rgb(255,125,116);stop-opacity:1"/><stop offset="0.22" style="stop-color:rgb(216,43,18);stop-opacity:1"/><stop offset="0.55" style="stop-color:rgb(255,126,115);stop-opacity:1"/><stop offset="0.69" style="stop-color:rgb(230,69,50);stop-opacity:1"/><stop offset="0.8" style="stop-color:rgb(219,43,20);stop-opacity:1"/><stop offset="1" style="stop-color:rgb(255,123,118);stop-opacity:1"/></linearGradient>
        <linearGradient id="_Linear21" x1="0" y1="0" x2="1" y2="0" gradientUnits="userSpaceOnUse" gradientTransform="matrix(24.66,0,0,24.66,69.0851,85.1145)"><stop offset="0" style="stop-color:rgb(255,125,116);stop-opacity:1"/><stop offset="0.22" style="stop-color:rgb(216,43,18);stop-opacity:1"/><stop offset="0.55" style="stop-color:rgb(255,126,115);stop-opacity:1"/><stop offset="0.69" style="stop-color:rgb(230,69,50);stop-opacity:1"/><stop offset="0.8" style="stop-color:rgb(219,43,20);stop-opacity:1"/><stop offset="1" style="stop-color:rgb(255,123,118);stop-opacity:1"/></linearGradient>
        <linearGradient id="_Linear22" x1="0" y1="0" x2="1" y2="0" gradientUnits="userSpaceOnUse" gradientTransform="matrix(36.4079,-1.83724,1.83724,36.4079,57.3372,83.558)"><stop offset="0" style="stop-color:rgb(255,125,116);stop-opacity:1"/><stop offset="0.22" style="stop-color:rgb(216,43,18);stop-opacity:1"/><stop offset="0.55" style="stop-color:rgb(255,126,115);stop-opacity:1"/><stop offset="0.69" style="stop-color:rgb(230,69,50);stop-opacity:1"/><stop offset="0.8" style="stop-color:rgb(219,43,20);stop-opacity:1"/><stop offset="1" style="stop-color:rgb(255,123,118);stop-opacity:1"/></linearGradient>
        <linearGradient id="_Linear23" x1="0" y1="0" x2="1" y2="0" gradientUnits="userSpaceOnUse" gradientTransform="matrix(113.62,-3.55271e-15,3.55271e-15,113.62,99.67,28.96)"><stop offset="0" style="stop-color:rgb(17,138,223);stop-opacity:1"/><stop offset="0.35" style="stop-color:rgb(17,137,221);stop-opacity:1"/><stop offset="0.65" style="stop-color:rgb(15,136,221);stop-opacity:1"/><stop offset="1" style="stop-color:rgb(0,108,194);stop-opacity:1"/></linearGradient>
        <linearGradient id="_Linear24" x1="0" y1="0" x2="1" y2="0" gradientUnits="userSpaceOnUse" gradientTransform="matrix(25.001,0,0,25.001,182.974,25.821)"><stop offset="0" style="stop-color:rgb(2,115,204);stop-opacity:1"/><stop offset="0.24" style="stop-color:rgb(37,158,237);stop-opacity:1"/><stop offset="0.49" style="stop-color:rgb(0,96,181);stop-opacity:1"/><stop offset="0.67" style="stop-color:rgb(35,157,237);stop-opacity:1"/><stop offset="0.8" style="stop-color:rgb(6,119,208);stop-opacity:1"/><stop offset="1" style="stop-color:rgb(31,153,234);stop-opacity:1"/></linearGradient>
        <linearGradient id="_Linear25" x1="0" y1="0" x2="1" y2="0" gradientUnits="userSpaceOnUse" gradientTransform="matrix(25.001,0,0,25.001,182.974,22.4424)"><stop offset="0" style="stop-color:rgb(0,109,193);stop-opacity:1"/><stop offset="0.29" style="stop-color:rgb(36,158,238);stop-opacity:1"/><stop offset="0.53" style="stop-color:rgb(1,112,203);stop-opacity:1"/><stop offset="0.73" style="stop-color:rgb(59,183,254);stop-opacity:1"/><stop offset="1" style="stop-color:rgb(23,140,226);stop-opacity:1"/></linearGradient>
        <linearGradient id="_Linear26" x1="0" y1="0" x2="1" y2="0" gradientUnits="userSpaceOnUse" gradientTransform="matrix(25.001,0,0,25.001,143.949,25.821)"><stop offset="0" style="stop-color:rgb(2,115,204);stop-opacity:1"/><stop offset="0.24" style="stop-color:rgb(37,158,237);stop-opacity:1"/><stop offset="0.49" style="stop-color:rgb(0,96,181);stop-opacity:1"/><stop offset="0.67" style="stop-color:rgb(35,157,237);stop-opacity:1"/><stop offset="0.8" style="stop-color:rgb(6,119,208);stop-opacity:1"/><stop offset="1" style="stop-color:rgb(31,153,234);stop-opacity:1"/></linearGradient>
        <linearGradient id="_Linear27" x1="0" y1="0" x2="1" y2="0" gradientUnits="userSpaceOnUse" gradientTransform="matrix(25.001,0,0,25.001,143.949,22.4424)"><stop offset="0" style="stop-color:rgb(0,109,193);stop-opacity:1"/><stop offset="0.29" style="stop-color:rgb(36,158,238);stop-opacity:1"/><stop offset="0.53" style="stop-color:rgb(1,112,203);stop-opacity:1"/><stop offset="0.73" style="stop-color:rgb(59,183,254);stop-opacity:1"/><stop offset="1" style="stop-color:rgb(23,140,226);stop-opacity:1"/></linearGradient>
        <linearGradient id="_Linear28" x1="0" y1="0" x2="1" y2="0" gradientUnits="userSpaceOnUse" gradientTransform="matrix(25.001,0,0,25.001,106.668,25.821)"><stop offset="0" style="stop-color:rgb(2,115,204);stop-opacity:1"/><stop offset="0.24" style="stop-color:rgb(37,158,237);stop-opacity:1"/><stop offset="0.49" style="stop-color:rgb(0,96,181);stop-opacity:1"/><stop offset="0.67" style="stop-color:rgb(35,157,237);stop-opacity:1"/><stop offset="0.8" style="stop-color:rgb(6,119,208);stop-opacity:1"/><stop offset="1" style="stop-color:rgb(31,153,234);stop-opacity:1"/></linearGradient>
        <linearGradient id="_Linear29" x1="0" y1="0" x2="1" y2="0" gradientUnits="userSpaceOnUse" gradientTransform="matrix(25.001,0,0,25.001,106.668,22.4424)"><stop offset="0" style="stop-color:rgb(0,109,193);stop-opacity:1"/><stop offset="0.29" style="stop-color:rgb(36,158,238);stop-opacity:1"/><stop offset="0.53" style="stop-color:rgb(1,112,203);stop-opacity:1"/><stop offset="0.73" style="stop-color:rgb(59,183,254);stop-opacity:1"/><stop offset="1" style="stop-color:rgb(23,140,226);stop-opacity:1"/></linearGradient>
        <linearGradient id="_Linear30" x1="0" y1="0" x2="1" y2="0" gradientUnits="userSpaceOnUse" gradientTransform="matrix(176.912,-54.8824,54.8824,176.912,43.322,112.23)"><stop offset="0" style="stop-color:rgb(0,106,192);stop-opacity:1"/><stop offset="0.18" style="stop-color:rgb(8,117,201);stop-opacity:1"/><stop offset="0.25" style="stop-color:rgb(25,141,221);stop-opacity:1"/><stop offset="0.31" style="stop-color:rgb(42,166,242);stop-opacity:1"/><stop offset="0.35" style="stop-color:rgb(0,107,196);stop-opacity:1"/><stop offset="0.74" style="stop-color:rgb(53,176,251);stop-opacity:1"/><stop offset="1" style="stop-color:rgb(0,107,194);stop-opacity:1"/></linearGradient>
        <linearGradient id="_Linear31" x1="0" y1="0" x2="1" y2="0" gradientUnits="userSpaceOnUse" gradientTransform="matrix(142.776,53.2992,-53.2992,142.776,93.0321,37.403)"><stop offset="0" style="stop-color:rgb(7,126,213);stop-opacity:1"/><stop offset="0.2" style="stop-color:rgb(6,125,212);stop-opacity:1"/><stop offset="0.38" style="stop-color:rgb(6,125,212);stop-opacity:1"/><stop offset="1" style="stop-color:rgb(6,125,211);stop-opacity:1"/></linearGradient>
    </defs>
</svg>
