<svg viewBox="0 0 1160 700" xmlns="http://www.w3.org/2000/svg">
  <defs>
    <style>
      .scope-box { fill: #f8fafc; stroke: #3b82f6; stroke-width: 2; rx: 8; }
      .scope-title { fill: #1e40af; font-family: 'SF Mono', Monaco, 'Cascadia Code', monospace; font-size: 16px; font-weight: 600; }
      .object-box { fill: #86efac; stroke: #16a34a; stroke-width: 2; rx: 4; }
      .object-box-shadowed { fill: #e5e7eb; stroke: #9ca3af; stroke-width: 2; rx: 4; opacity: 0.6; }
      .object-text { fill: #0f172a; font-family: 'SF Mono', Monaco, 'Cascadia Code', monospace; font-size: 14px; font-weight: 600; }
      .object-text-shadowed { fill: #6b7280; font-family: 'SF Mono', Monaco, 'Cascadia Code', monospace; font-size: 14px; font-weight: 500; }
      .arrow { fill: none; stroke: #3b82f6; stroke-width: 2; marker-end: url(#arrowhead-light); }
      .label-text { fill: #1e293b; font-family: 'SF Mono', Monaco, 'Cascadia Code', monospace; font-size: 14px; }
      .state-label { fill: #ea580c; font-family: 'SF Mono', Monaco, 'Cascadia Code', monospace; font-size: 18px; font-weight: 700; }
      .action-label { fill: #7c3aed; font-family: 'SF Mono', Monaco, 'Cascadia Code', monospace; font-size: 15px; font-weight: 600; }
    </style>
    <marker id="arrowhead-light" markerWidth="10" markerHeight="10" refX="9" refY="3" orient="auto">
      <polygon points="0 0, 10 3, 0 6" fill="#3b82f6" />
    </marker>
  </defs>

  <!-- State 1: One Scope (Base) -->
  <g id="state1">
    <text x="10" y="30" class="state-label">State 1: Base Scope</text>

    <!-- Base Scope -->
    <rect x="10" y="50" width="300" height="180" class="scope-box"/>
    <text x="30" y="75" class="scope-title">Base Scope</text>

    <!-- Objects in base scope -->
    <rect x="30" y="95" width="120" height="35" class="object-box"/>
    <text x="50" y="117" class="object-text">User: Guest</text>

    <rect x="170" y="95" width="120" height="35" class="object-box"/>
    <text x="215" y="117" class="object-text">Cart</text>

    <rect x="30" y="145" width="120" height="35" class="object-box"/>
    <text x="35" y="167" class="object-text">API: Public</text>

    <text x="60" y="215" class="label-text">All objects accessible</text>
  </g>

  <!-- Arrow: push -->
  <g id="push-arrow">
    <path d="M 330 140 L 420 140" class="arrow"/>
    <text x="335" y="125" class="action-label">pushNewScope()</text>
  </g>

  <!-- State 2: Two Scopes (After Push) -->
  <g id="state2">
    <text x="480" y="30" class="state-label">State 2: Scope Pushed</text>

    <!-- Login Scope (Top) -->
    <rect x="440" y="50" width="300" height="120" class="scope-box"/>
    <text x="460" y="75" class="scope-title">Login Scope (active)</text>

    <!-- Objects in login scope -->
    <rect x="460" y="95" width="130" height="35" class="object-box"/>
    <text x="470" y="117" class="object-text">User: Logged</text>

    <rect x="600" y="95" width="120" height="35" class="object-box"/>
    <text x="620" y="117" class="object-text">API: Auth</text>

    <!-- Base Scope (Bottom) - with shadowed objects -->
    <rect x="440" y="180" width="300" height="150" class="scope-box"/>
    <text x="460" y="205" class="scope-title">Base Scope</text>

    <!-- Shadowed objects -->
    <rect x="460" y="225" width="120" height="35" class="object-box-shadowed"/>
    <text x="475" y="247" class="object-text-shadowed">User: Guest</text>

    <rect x="600" y="225" width="120" height="35" class="object-box-shadowed"/>
    <text x="600" y="247" class="object-text-shadowed">API: Public</text>

    <!-- Non-shadowed object still accessible -->
    <rect x="460" y="275" width="120" height="35" class="object-box"/>
    <text x="505" y="297" class="object-text">Cart</text>

    <!-- Search order arrow -->
    <path d="M 765 90 L 765 150" class="arrow"/>
    <text x="775" y="120" class="label-text">Search</text>
    <text x="775" y="135" class="label-text">order</text>

    <path d="M 765 190 L 765 250" class="arrow"/>
  </g>

  <!-- Arrow: pop -->
  <g id="pop-arrow">
    <path d="M 740 340 L 830 340" class="arrow"/>
    <text x="750" y="330" class="action-label">popScope()</text>
  </g>

  <!-- State 3: One Scope Again (After Pop) -->
  <g id="state3">
    <text x="860" y="30" class="state-label">State 3: After Pop</text>

    <!-- Base Scope Restored -->
    <rect x="850" y="50" width="300" height="180" class="scope-box"/>
    <text x="870" y="75" class="scope-title">Base Scope (restored)</text>

    <!-- Objects in base scope - all active again -->
    <rect x="870" y="95" width="120" height="35" class="object-box"/>
    <text x="890" y="117" class="object-text">User: Guest</text>

    <rect x="1010" y="95" width="120" height="35" class="object-box"/>
    <text x="1055" y="117" class="object-text">Cart</text>

    <rect x="870" y="145" width="120" height="35" class="object-box"/>
    <text x="875" y="167" class="object-text">API: Public</text>

    <text x="890" y="215" class="label-text">Original objects restored</text>
  </g>

  <!-- Legend -->
  <g id="legend" transform="translate(30, 400)">
    <text x="0" y="0" class="scope-title">Legend:</text>

    <rect x="0" y="15" width="80" height="30" class="object-box"/>
    <text x="10" y="35" class="object-text">Active</text>
    <text x="90" y="35" class="label-text">Object is accessible via get()</text>

    <rect x="0" y="60" width="80" height="30" class="object-box-shadowed"/>
    <text x="10" y="80" class="object-text-shadowed">Hidden</text>
    <text x="90" y="80" class="label-text">Object is shadowed by one in higher scope</text>

    <rect x="0" y="105" width="200" height="40" class="scope-box"/>
    <text x="10" y="130" class="scope-title">Scope Container</text>
    <text x="210" y="130" class="label-text">Holds registered objects</text>
  </g>

  <!-- Bottom explanation -->
  <g id="explanation">
    <text x="30" y="600" class="label-text" font-size="15px">get() search order: Current Scope → Lower Scopes (top to bottom)</text>
    <text x="30" y="625" class="label-text" font-size="15px">State 2: get&lt;User&gt;() returns "Logged" (shadows "Guest"), get&lt;API&gt;() returns "Auth" (shadows "Public")</text>
    <text x="30" y="650" class="label-text" font-size="15px">State 2: get&lt;Cart&gt;() returns "Cart" (NOT shadowed - only one registration exists)</text>
    <text x="30" y="675" class="label-text" font-size="15px">After popScope(): Login Scope disposed, Guest User and Public API automatically active again</text>
  </g>
</svg>
