<?xml version="1.0" encoding="UTF-8" standalone="no"?><!DOCTYPE svg PUBLIC "-//W3C//DTD SVG 1.1//EN" "http://www.w3.org/Graphics/SVG/1.1/DTD/svg11.dtd"><svg width="100%" height="100%" viewBox="0 0 240 240" version="1.1" xmlns="http://www.w3.org/2000/svg" xmlns:xlink="http://www.w3.org/1999/xlink" xml:space="preserve" style="fill-rule:evenodd;clip-rule:evenodd;stroke-linejoin:round;stroke-miterlimit:1.41421;"><g id="watch_it"><path d="M216.081,35.158c-1.84,-2.878 -2.724,-3.649 -5.724,-3.649l-185.852,0c-3,0 -5.633,3.649 -5.633,3.649c0,0 -5.046,16.553 -8.069,21.398c-2.244,3.597 0.195,7.516 3.772,7.516l213.636,0c3.001,0 1.846,-4.707 0.792,-7.516l-12.922,-21.398Z" style="fill:#259a4e;"/><path d="M230.06,60.83c0,-2.831 -2.345,-5.129 -5.234,-5.129l-209.722,0c-2.889,0 -5.235,2.298 -5.235,5.129l0,160.702c0,2.831 2.346,5.129 5.235,5.129l209.722,0c2.889,0 5.234,-2.298 5.234,-5.129l0,-160.702Z" style="fill:url(#_Linear1);"/><g><path d="M180.371,32.011c2.117,-0.098 4.297,-0.15 6.524,-0.15c10.465,0 19.898,1.137 26.506,2.954c0.032,0.008 0.095,0.026 0.095,0.026l5.279,10.628c0,0 -0.03,0.014 -0.044,0.021c-6.122,2.886 -18.089,4.848 -31.836,4.848c-2.227,0 -4.407,-0.051 -6.524,-0.149c16.86,-0.786 29.655,-4.559 29.655,-9.089c0,-4.53 -12.795,-8.303 -29.655,-9.089Z" style="fill:#117233;fill-opacity:0.713726;"/><path d="M173.848,31.957c17.119,0 36.179,-7.897 36.179,-7.897c0,0 0,16.513 0,17.25c0,5.162 -16.21,9.352 -36.179,9.352c-19.967,0 -36.178,-4.19 -36.178,-9.352c0,-0.699 0,-17.25 0,-17.25c0,0 18.914,7.897 36.178,7.897Z" style="fill:url(#_Linear2);"/><ellipse cx="173.848" cy="23.561" rx="36.179" ry="9.239" style="fill:#35aa58;"/><path d="M209.749,22.411c0.183,0.376 0.277,0.76 0.277,1.149c0,5.099 -16.21,9.239 -36.178,9.239c-19.967,0 -36.178,-4.14 -36.178,-9.239c0,-0.152 0.014,-0.303 0.042,-0.453c2.22,4.557 17.458,8.089 35.901,8.089c19.372,0 35.209,-3.897 36.136,-8.785Z" style="fill:url(#_Linear3);"/></g><g><path d="M73.1,31.028c2.116,-0.098 4.296,-0.15 6.524,-0.15c10.464,0 19.898,1.137 26.506,2.954c0.032,0.008 0.095,0.026 0.095,0.026c9.925,3.503 11.034,7.049 5.279,10.628c0,0 -0.03,0.014 -0.044,0.021c-6.122,2.886 -18.089,4.848 -31.836,4.848c-2.228,0 -4.408,-0.051 -6.524,-0.15c16.859,-0.785 29.655,-4.558 29.655,-9.088c0,-4.53 -12.796,-8.303 -29.655,-9.089Z" style="fill:#117233;fill-opacity:0.713726;"/><path d="M66.577,30.974c17.118,0 36.179,-7.897 36.179,-7.897c0,0 0,16.513 0,17.25c0,5.162 -16.21,9.352 -36.179,9.352c-19.967,0 -36.178,-4.19 -36.178,-9.352c0,-0.699 0,-17.25 0,-17.25c0,0 18.914,7.897 36.178,7.897Z" style="fill:url(#_Linear4);"/><ellipse cx="66.577" cy="22.577" rx="36.179" ry="9.239" style="fill:#35aa58;"/><path d="M102.478,21.427c0.183,0.377 0.277,0.761 0.277,1.15c0,5.099 -16.21,9.239 -36.178,9.239c-19.967,0 -36.179,-4.14 -36.179,-9.239c0,-0.152 0.015,-0.303 0.043,-0.453c2.22,4.557 17.458,8.088 35.901,8.088c19.372,0 35.209,-3.896 36.136,-8.785Z" style="fill:url(#_Linear5);"/></g><path d="M224.904,65.443c0,-2.657 -2.216,-4.815 -4.947,-4.815l-199.863,0c-2.73,0 -4.947,2.158 -4.947,4.815l0,150.869c0,2.657 2.217,4.815 4.947,4.815l199.863,0c2.731,0 4.947,-2.158 4.947,-4.815l0,-150.869Z" style="fill:#259a4e;"/><rect x="174.794" y="194.993" width="14.54" height="4.544" style="fill:#fff;"/><g><path d="M59.467,167.211l-7.008,27.436l-7.338,0l-5.597,-19.958l-5.738,19.958l-7.338,0l-6.961,-27.436l6.632,0l4.233,21.196l5.786,-21.196l7.008,0l5.832,21.196l4.281,-21.196l6.208,0Z" style="fill:#fff;fill-rule:nonzero;"/><path d="M72.966,166.864c2.195,0 4.077,0.545 5.645,1.634c1.568,1.09 2.681,2.559 3.339,4.408l0,-5.695l6.585,0l0,27.436l-6.585,0l0,-5.745c-0.658,1.849 -1.771,3.326 -3.339,4.432c-1.568,1.106 -3.45,1.659 -5.645,1.659c-2.195,0 -4.17,-0.561 -5.926,-1.684c-1.756,-1.122 -3.128,-2.748 -4.116,-4.878c-0.987,-2.129 -1.481,-4.63 -1.481,-7.502c0,-2.873 0.494,-5.374 1.481,-7.503c0.988,-2.13 2.36,-3.756 4.116,-4.878c1.756,-1.123 3.731,-1.684 5.926,-1.684Zm2.07,6.091c-2.07,0 -3.732,0.71 -4.986,2.13c-1.254,1.42 -1.881,3.368 -1.881,5.844c0,2.476 0.627,4.415 1.881,5.819c1.254,1.403 2.916,2.104 4.986,2.104c2.007,0 3.661,-0.718 4.962,-2.154c1.302,-1.436 1.952,-3.359 1.952,-5.769c0,-2.443 -0.65,-4.383 -1.952,-5.819c-1.301,-1.436 -2.955,-2.155 -4.962,-2.155Z" style="fill:#fff;fill-rule:nonzero;"/><path d="M108.478,188.654l0,5.993l-3.48,0c-2.917,0 -5.151,-0.743 -6.703,-2.229c-1.552,-1.486 -2.328,-3.962 -2.328,-7.428l0,-11.886l-3.622,0l0,-5.893l3.622,0l0,-6.785l6.632,0l0,6.785l5.832,0l0,5.893l-5.832,0l0,11.985c0,1.32 0.251,2.245 0.752,2.773c0.502,0.528 1.349,0.792 2.54,0.792l2.587,0Z" style="fill:#fff;fill-rule:nonzero;"/><path d="M124.941,166.864c3.355,0 6.154,0.958 8.396,2.872c2.242,1.915 3.645,4.524 4.209,7.825l-7.008,0c-0.282,-1.453 -0.925,-2.6 -1.928,-3.442c-1.004,-0.842 -2.274,-1.263 -3.81,-1.263c-1.756,0 -3.222,0.685 -4.398,2.056c-1.176,1.37 -1.764,3.375 -1.764,6.017c0,2.641 0.588,4.647 1.764,6.017c1.176,1.37 2.642,2.055 4.398,2.055c1.536,0 2.806,-0.421 3.81,-1.263c1.003,-0.842 1.646,-1.989 1.928,-3.442l7.008,0c-0.564,3.302 -1.967,5.91 -4.209,7.825c-2.242,1.915 -5.041,2.872 -8.396,2.872c-2.54,0 -4.798,-0.569 -6.773,-1.708c-1.976,-1.139 -3.512,-2.765 -4.61,-4.878c-1.097,-2.113 -1.646,-4.606 -1.646,-7.478c0,-2.873 0.549,-5.374 1.646,-7.503c1.098,-2.13 2.634,-3.756 4.61,-4.878c1.975,-1.123 4.233,-1.684 6.773,-1.684Z" style="fill:#fff;fill-rule:nonzero;"/><path d="M157.772,166.815c3.01,0 5.409,1.04 7.196,3.12c1.787,2.08 2.681,5.001 2.681,8.765l0,15.947l-6.585,0l0,-15.155c0,-2.179 -0.533,-3.871 -1.599,-5.076c-1.066,-1.205 -2.524,-1.807 -4.374,-1.807c-1.882,0 -3.387,0.644 -4.516,1.931c-1.129,1.288 -1.693,3.137 -1.693,5.547l0,14.56l-6.632,0l0,-36.647l6.632,0l0,14.708c0.69,-1.849 1.826,-3.293 3.41,-4.333c1.583,-1.04 3.41,-1.56 5.48,-1.56Z" style="fill:#fff;fill-rule:nonzero;"/><path d="M193.236,159.337c0,-1.123 0.377,-2.039 1.129,-2.749c0.753,-0.71 1.741,-1.065 2.964,-1.065c1.222,0 2.21,0.355 2.963,1.065c0.752,0.71 1.129,1.626 1.129,2.749c0,1.089 -0.377,1.989 -1.129,2.699c-0.753,0.709 -1.741,1.064 -2.963,1.064c-1.223,0 -2.211,-0.355 -2.964,-1.064c-0.752,-0.71 -1.129,-1.61 -1.129,-2.699Zm7.385,7.874l0,27.436l-6.632,0l0,-27.436l6.632,0Z" style="fill:#fff;fill-rule:nonzero;"/><path d="M220.564,188.654l0,5.993l-3.481,0c-2.916,0 -5.15,-0.743 -6.702,-2.229c-1.552,-1.486 -2.328,-3.962 -2.328,-7.428l0,-11.886l-3.622,0l0,-5.893l3.622,0l0,-6.785l6.632,0l0,6.785l5.832,0l0,5.893l-5.832,0l0,11.985c0,1.32 0.25,2.245 0.752,2.773c0.502,0.528 1.349,0.792 2.54,0.792l2.587,0Z" style="fill:#fff;fill-rule:nonzero;"/></g><path d="M177.148,109.468c-26.166,60.803 -92.433,47.395 -114.245,4.415c26.749,-44.98 70.918,-58.511 114.245,-4.415Zm-10.836,2.744c-0.179,-0.231 -0.357,-0.46 -0.538,-0.688c-29.965,-38.103 -66.963,-34.814 -92.137,2.359c22.868,37.974 69.875,36.107 92.675,-1.671Z" style="fill:#fff;fill-rule:nonzero;"/><path d="M120.025,93.644c9.431,0 17.088,8.43 17.088,18.815c0,10.384 -7.657,18.815 -17.088,18.815c-9.43,0 -17.087,-8.431 -17.087,-18.815c0,-10.385 7.657,-18.815 17.087,-18.815Zm0,9.407c4.716,0 8.544,4.215 8.544,9.408c0,5.192 -3.828,9.407 -8.544,9.407c-4.715,0 -8.543,-4.215 -8.543,-9.407c0,-5.193 3.828,-9.408 8.543,-9.408Z" style="fill:#fff;"/></g><defs><linearGradient id="_Linear1" x1="0" y1="0" x2="1" y2="0" gradientUnits="userSpaceOnUse" gradientTransform="matrix(284.989,-84.9477,88.3004,274.168,-21.4355,172.952)"><stop offset="0" style="stop-color:#55bd6d;stop-opacity:1"/><stop offset="0.22" style="stop-color:#1b883d;stop-opacity:1"/><stop offset="0.55" style="stop-color:#53bb6b;stop-opacity:1"/><stop offset="0.69" style="stop-color:#33a457;stop-opacity:1"/><stop offset="0.8" style="stop-color:#259a4e;stop-opacity:1"/><stop offset="1" style="stop-color:#54bc6c;stop-opacity:1"/></linearGradient><linearGradient id="_Linear2" x1="0" y1="0" x2="1" y2="0" gradientUnits="userSpaceOnUse" gradientTransform="matrix(72.3577,0,0,101.095,137.67,37.3614)"><stop offset="0" style="stop-color:#1a873c;stop-opacity:1"/><stop offset="0.24" style="stop-color:#54bc6c;stop-opacity:1"/><stop offset="0.49" style="stop-color:#117233;stop-opacity:1"/><stop offset="0.67" style="stop-color:#54bc6c;stop-opacity:1"/><stop offset="0.8" style="stop-color:#117233;stop-opacity:1"/><stop offset="1" style="stop-color:#54bc6c;stop-opacity:1"/></linearGradient><linearGradient id="_Linear3" x1="0" y1="0" x2="1" y2="0" gradientUnits="userSpaceOnUse" gradientTransform="matrix(72.3575,0,0,75.9308,137.67,27.6048)"><stop offset="0" style="stop-color:#259a4e;stop-opacity:1"/><stop offset="0.29" style="stop-color:#53bb6b;stop-opacity:1"/><stop offset="0.53" style="stop-color:#259a4e;stop-opacity:1"/><stop offset="0.73" style="stop-color:#54bc6c;stop-opacity:1"/><stop offset="1" style="stop-color:#1b883d;stop-opacity:1"/></linearGradient><linearGradient id="_Linear4" x1="0" y1="0" x2="1" y2="0" gradientUnits="userSpaceOnUse" gradientTransform="matrix(72.3577,0,0,101.095,30.3986,36.3783)"><stop offset="0" style="stop-color:#1a873c;stop-opacity:1"/><stop offset="0.24" style="stop-color:#54bc6c;stop-opacity:1"/><stop offset="0.49" style="stop-color:#117233;stop-opacity:1"/><stop offset="0.67" style="stop-color:#54bc6c;stop-opacity:1"/><stop offset="0.8" style="stop-color:#117233;stop-opacity:1"/><stop offset="1" style="stop-color:#54bc6c;stop-opacity:1"/></linearGradient><linearGradient id="_Linear5" x1="0" y1="0" x2="1" y2="0" gradientUnits="userSpaceOnUse" gradientTransform="matrix(72.3575,0,0,75.9308,30.3984,26.6217)"><stop offset="0" style="stop-color:#259a4e;stop-opacity:1"/><stop offset="0.29" style="stop-color:#53bb6b;stop-opacity:1"/><stop offset="0.53" style="stop-color:#259a4e;stop-opacity:1"/><stop offset="0.73" style="stop-color:#54bc6c;stop-opacity:1"/><stop offset="1" style="stop-color:#1b883d;stop-opacity:1"/></linearGradient></defs></svg>